<svg xmlns="http://www.w3.org/2000/svg" xmlns:xlink="http://www.w3.org/1999/xlink" width="1620px" height="820px" viewBox="0 0  1620 820" preserveAspectRatio="xMidYMid meet" zoomAndPan="disable" ><defs id="svgEditorDefs"><path id="svgEditorClosePathDefs" stroke="black" fill="khaki" style="stroke-width: 1px; vector-effect: non-scaling-stroke;"/></defs><rect id="svgEditorBackground" x="0" y="0" width="1620" height="820" style="fill: none; stroke: none;"/><path d="M 0 -2 v -2 l -4 4 4 4 v -2 h 4 v -4 z" stroke="black" id="e1_shape" style="vector-effect: non-scaling-stroke; stroke-width: 1px;" fill="khaki" transform="matrix(0 0 0 0 489 354)"/><path d="M80,-418v-2l-4,4l4,4v-2h4v-4Z" stroke="black" id="e2_shape" style="vector-effect: non-scaling-stroke; stroke-width: 1px;" fill="khaki" transform="matrix(0.125 0 0 0.125 436.5 398.5)"/><path d="M 0 -2 v -2 l -4 4 4 4 v -2 h 4 v -4 z" stroke="black" id="e3_shape" style="vector-effect: non-scaling-stroke; stroke-width: 1px;" fill="khaki" transform="matrix(0 0 0 0 457 388)"/><path d="M0,-2v-2l-4,4l4,4v-2h4v-4Z" stroke="black" id="e4_shape" style="vector-effect: non-scaling-stroke; stroke-width: 1px;" fill="white" transform="matrix(2.43648 0 0 2.43648 176.5 461.5)"/></svg>