<svg xmlns="http://www.w3.org/2000/svg" xmlns:xlink="http://www.w3.org/1999/xlink" width="20px" height="20px" viewBox="166 450 21 21" preserveAspectRatio="xMidYMid meet" zoomAndPan="disable"  ><defs id="svgEditorDefs"><path id="svgEditorClosePathDefs" stroke="black" fill="khaki" style="stroke-width: 1px; vector-effect: non-scaling-stroke;"/></defs><rect id="svgEditorBackground" x="0" y="0" width="1620" height="820" style="fill: none; stroke: none;"/><path d="M 0 -2 v -2 l -4 4 4 4 v -2 h 4 v -4 z" stroke="black" id="e1_shape" style="vector-effect: non-scaling-stroke; stroke-width: 1px;" fill="khaki" transform="matrix(0 0 0 0 489 354)"/><path d="M80,-418v-2l-4,4l4,4v-2h4v-4Z" stroke="black" id="e2_shape" style="vector-effect: non-scaling-stroke; stroke-width: 1px;" fill="khaki" transform="matrix(0.125 0 0 0.125 436.5 398.5)"/><path d="M 0 -2 v -2 l -4 4 4 4 v -2 h 4 v -4 z" stroke="black" id="e3_shape" style="vector-effect: non-scaling-stroke; stroke-width: 1px;" fill="khaki" transform="matrix(0 0 0 0 457 388)"/><path d="M3.2888280265509593,-2.1702210116802974v-2.0615863229454874l-4.000081675368534,4l4,4v-2h0.0020815584732929485v-3.9955587503815906Z" stroke="black" id="e4_shape" style="vector-effect: non-scaling-stroke; stroke-width: 1px;" fill="white" transform="matrix(-0.0185943 -2.10084 2.08163 -0.0184441 176.909 462.932)"/></svg>