<svg xmlns="http://www.w3.org/2000/svg" xmlns:xlink="http://www.w3.org/1999/xlink" version="1.1" id="Isolation_Mode" x="0px" y="0px" width="523.018px" height="107.42px" viewBox="0 0 523.018 107.42" enable-background="new 0 0 523.018 107.42" xml:space="preserve">
<path fill="#FFD400" d="M211.635,29.901c0.516,0.346,1.124,0.537,1.713,0.576c1.02,0.074,2.877-0.506,4.57-1.635  c0.552-0.374,1.067-0.798,1.532-1.231c1.017-0.948,1.684-1.91,2.126-2.944c0.591-1.45,0.826-2.758,0.392-4.005  c-0.124-0.368-0.292-0.721-0.51-1.01c-1.164-1.431-2.949-1.284-4.363-0.866c-0.527,0.151-1.652,0.642-2.785,1.376  c-1.738,1.128-3.331,3.155-3.738,4.645c-0.14,0.467-0.229,0.951-0.254,1.435C210.394,27.57,210.064,28.686,211.635,29.901  L211.635,29.901L211.635,29.901L211.635,29.901z"/>
<path fill="#FFD400" d="M149.594,80.814c-0.811,0.968-1.645,1.914-2.337,2.679c-1.41,1.57-2.388,2.519-3.609,3.528  c-1.103,0.895-2.164,1.68-3.025,2.12c-1.532,0.745-3.042,1.329-4.68,0.957c-0.392-0.149-0.774-0.332-1.168-0.991  c-0.7-1.378-0.053-2.902,0.458-4.365c0.597-1.396,1.371-2.659,2.114-3.986c16.369-20.527,32.764-41.041,49.144-61.558l0,0  l-11.718,0.058l-44.146,58.23l0,0c-0.734,0.974-1.493,1.925-2.275,2.858c-0.777,0.93-1.583,1.845-2.286,2.602  c-1.434,1.564-2.56,2.611-3.866,3.703c-1.231,1.014-2.383,1.912-3.381,2.411c-1.658,0.739-3.248,1.352-5.172,0.52  c-1.326-1.13-1.299-2.479-0.88-3.855c0.668-2.117,2.151-4.384,3.876-6.433l0,0l29.355-37.19l-10.99-0.063l-22.687,31.218l0,0  c-3.035,4.355-5.055,8.547-4.693,12.948c0.068,0.651,0.199,1.303,0.391,1.938c0.246,0.731,0.62,1.41,1.1,2.019  c1.063,1.323,2.472,2.071,3.85,2.349c4.812,0.833,9.614-1.42,14.716-7.206c0.667-0.777,1.352-1.551,2.048-2.322  c-0.385,2.41-1.168,4.719,0.475,7.345c1.235,1.712,2.612,2.078,4.053,2.471c3.075,0.753,6.412-0.332,9.679-2.982  c2.742-2.053,5.531-4.835,7.794-7.455c-0.239,1.062-0.351,2.141-0.329,3.22c0.009,0.539,0.056,1.077,0.106,1.457  c0.096,0.733,0.21,1.025,0.346,1.514c0.114,0.424,0.48,1.25,1.154,2.068c0.858,0.992,1.836,1.468,2.869,1.76  c1.838,0.505,3.956,0.435,5.803-0.254c1.911-0.686,4.061-1.83,6.121-3.762c1.955-1.925,3.743-3.891,5.395-5.896  c-0.398,2.606-1.281,5.005,0.456,7.854c0.336,0.493,0.75,0.926,1.224,1.285c1.62,1.184,3.741,1.456,5.783,1.124  c2.165-0.379,5.049-1.962,7.834-4.022c0.896-0.678,1.75-1.409,2.493-2.09c1.533-1.398,2.645-2.625,3.729-3.971  c-0.413,2.625-0.33,5.315,1.278,8.063c0.301,0.53,0.956,1.161,1.568,1.442c1.095,0.518,2.297,0.764,3.473,0.73  c1.899-0.063,4.826-1.104,7.572-2.957c2.72-1.896,4.904-4.4,7.334-6.653c-0.43,2.605-1.167,5.217,1.152,8.087  c1.27,1.445,2.75,1.504,4.185,1.557c1.939,0.028,3.97-0.644,5.917-1.843c0.701-0.413,1.93-1.398,3.209-2.599  c0.716-0.678,1.397-1.397,1.886-1.931c0.947-1.032,1.347-1.537,1.96-2.278l0,0l28.609-34.944l0,0c0.729-0.9,1.543-1.799,2.507-2.663  c1.241-1.108,2.236-1.851,3.202-2.236c1.155-0.432,2.278-0.919,3.662,0.272c1.237,1.257,0.873,2.856,0.554,4.329  c-0.69,2.361-2.929,4.709-4.576,6.966c-9.677,12.141-19.358,24.281-29.026,36.427c3.691-0.013,7.381-0.019,11.071-0.039l0,0  l25.937-34.462l0,0c2.211-2.858,4.62-5.273,7.363-8.033c2.315-2.248,4.639-4.234,7.025-5.619c0.585-0.339,1.25-0.507,1.895-0.491  c0.685,0.053,1.276,0.07,1.845,0.709c0.36,0.444,0.483,0.951,0.516,1.445c0.01,0.887-0.42,2.788-1.342,4.333  c-0.881,1.468-1.855,2.915-2.933,4.339c-9.993,12.579-19.997,25.159-29.984,37.745c3.532,0.042,7.066,0.088,10.604,0.121  c9.204-12,18.386-23.988,27.617-36.006c0.343-0.421,1.024-1.203,1.729-2.056c1.265-1.528,2.67-3.473,4.674-5.331  c1.115-1.038,2.186-1.945,3.065-2.495c1.427-0.837,2.829-1.67,4.324-1.498c0.558,0.1,1.08,0.129,1.491,0.701  c0.236,0.345,0.304,0.733,0.339,1.109c0.042,0.283-0.053,1-0.234,1.737c-0.112,0.44-0.262,0.87-0.446,1.288  c-0.393,0.895-1.241,2.176-2.215,3.563c-3.607,4.739-7.382,9.348-11.075,14.024c-0.36,0.452-0.69,0.923-1.033,1.39  c-0.339,0.472-0.664,0.945-1.142,1.679c-0.477,0.736-1.096,1.735-1.676,2.757c-0.576,1.023-1.111,2.069-1.531,2.906  c-0.836,1.674-1.295,2.705-1.735,4.052c-0.784,2.55-1.238,5.24-0.108,8.098c0.262,0.566,0.607,1.096,1.019,1.573  c1.567,1.738,3.663,2.395,5.692,2.707c0.752,0.092,1.514,0.107,2.067,0.092c1.051-0.02,1.539-0.139,2.267-0.306  c0.34-0.079,0.674-0.186,1.265-0.417c1.204-0.473,3.157-1.398,4.741-2.455c2.235-1.476,4.732-3.645,7.224-6.604  c0.753-0.897,1.461-1.824,2.556-3.396c1.092-1.571,2.575-3.791,3.963-6.059c4.285-7.011,7.305-13.76,9.151-20.596  c0.641-2.352,1.149-4.74,1.474-6.469c0.328-1.727,0.471-2.798,0.594-3.87c0.377-3.21,0.533-6.435,0.134-9.67  c-0.353-2.879-0.964-5.468-2.06-8.025c-0.335-0.78-0.703-1.543-1.054-2.194c-0.669-1.228-1.34-2.195-2.244-3.238  c-0.426-0.483-0.872-0.938-1.491-1.501c-0.615-0.558-1.401-1.217-2.235-1.814c-3.694-2.628-7.541-3.658-11.431-3.721  c-3.109-0.003-6.75,0.459-10.339,1.888c-1.169,0.464-2.295,1.018-3.136,1.476c-0.834,0.457-1.38,0.818-1.918,1.191  c-1.387,0.904-3.033,2.402-3.882,3.823c-1.776,3.026-2.859,6.606-1.749,10.222c0.254,0.728,0.626,1.414,1.111,2.016  c0.48,0.598,1.064,1.113,1.472,1.432c0.784,0.605,1.053,0.647,1.563,0.864c0.881,0.324,2.172,0.544,3.402,0.647  c1.368,0.117,2.979,0.054,4.564-0.586c0.512-0.205,1.004-0.449,1.791-1.01c0.789-0.562,1.869-1.436,2.799-2.449  c0.934-1.012,1.722-2.161,2.349-3.392c0.622-1.233,1.083-2.547,1.368-3.898l0,0l-0.542-0.275l0,0  c-0.715,1.561-1.65,3.11-2.976,4.666c-1.383,1.53-2.947,2.593-4.545,3.281c-0.871,0.371-1.773,0.637-2.426,0.804  c-1.25,0.316-1.811,0.316-2.672,0.293c-0.991-0.056-1.872-0.22-2.724-0.831c-0.229-0.16-0.443-0.341-0.725-0.676  c-0.64-0.753-1.29-1.956-1.474-3.029c-0.435-2.313,0.227-5.37,2.352-7.92c0.541-0.646,1.206-1.315,1.936-1.922  c0.723-0.601,1.502-1.136,2.328-1.591c4.667-2.379,9.883-3.155,15.012-2.095c2.496,0.588,4.977,1.545,7.475,3.624  c0.478,0.413,0.926,0.856,1.351,1.327c0.422,0.47,0.821,0.966,1.306,1.714c1.057,1.613,2.21,3.928,2.829,6  c0.642,2.09,0.999,4.144,1.164,6.029c0.077,0.893,0.127,1.791,0.142,2.921c0.043,2.3-0.065,5.254-0.388,7.916  c-0.162,1.352-0.369,2.699-0.694,4.29c-0.662,3.191-1.766,7.083-3.058,10.643c-0.637,1.777-1.337,3.535-2.278,5.568  c-0.934,2.035-2.108,4.347-3.401,6.59c-1.29,2.246-2.693,4.42-3.712,5.938c-1.019,1.519-1.656,2.388-2.311,3.231  c-0.661,0.84-1.346,1.666-1.999,2.393c-2.093,2.315-4.03,3.739-6.21,4.92c-1.494,0.787-2.94,1.206-4.449,1.312  c-0.771,0.06-1.541,0.033-2.11-0.033c-0.572-0.066-0.939-0.156-1.28-0.325c-2.098-1.2-1.822-3.146-1.365-4.782  c0.217-0.693,0.676-1.54,1.234-2.444c0.304-0.483,0.619-0.958,2.037-2.879c1.406-1.915,3.974-5.23,6.433-8.624  c3.509-4.656,6.542-9.527,9.025-14.351c0.614-1.264,1.157-2.452,1.495-3.462c0.923-2.899,1.369-5.794-0.547-8.925  c-0.804-1.022-1.609-1.309-2.493-1.652c-1.661-0.58-3.482-0.402-5.232,0.204c-0.656,0.218-1.722,0.753-2.863,1.398  c-0.645,0.37-1.275,0.767-1.891,1.188c-1.295,0.871-2.986,2.277-4.793,3.954c-0.972,0.907-1.906,1.852-2.809,2.829  c0.272-1.198,0.453-2.409,0.541-3.622c0.047-0.61,0.065-1.221,0.058-1.682c-0.034-1.222-0.062-1.931-0.545-2.932  c-0.147-0.291-0.326-0.567-0.538-0.815c-0.535-0.611-1.034-0.971-1.434-1.172c-0.299-0.173-1.152-0.385-2.041-0.476  c-2.342-0.247-4.78,0.918-7.188,2.262c-2.556,1.535-5.318,3.806-7.963,6.62c-0.815,0.846-1.595,1.725-2.376,2.601  c0.677-2.302,1.043-4.592,0.755-6.964c-0.186-1.007-0.6-2.05-1.369-3.033c-2.751-2.628-5.965-1.865-9.101-0.384  c-1.479,0.789-2.847,1.766-4.234,3.179c-10.928,13.055-21.519,26.303-32.495,39.455c-0.577,0.745-1.249,1.479-2.066,2.184  c-0.629,0.539-1.25,1.011-1.727,1.267c-1.03,0.538-1.897,0.918-3.072,0.673c-0.48-0.135-0.876-0.254-1.259-0.623  c-0.839-0.998-0.663-2.044-0.423-3.109c0.26-1.044,0.565-1.632,1.027-2.629c0.287-0.592,0.541-1.145,0.819-1.599  c0.101-0.159,0.209-0.31,5.315-6.852c5.106-6.542,15.214-19.459,25.321-32.382c-3.409,0.05-6.818,0.104-8.523,0.129  c-1.705,0.027-1.707,0.027-1.707,0.027c-1.209,1.552-2.419,3.116-3.631,4.671c0.275-1.242,0.386-2.58-1.067-4.01  c-0.82-0.811-2.278-1.232-3.217-1.308c-0.229-0.022-0.46-0.033-1.029-0.002c-1.192,0.061-3.34,0.306-5.055,0.784  c-0.879,0.234-1.748,0.513-3.039,1.029c-2.544,1.004-6.319,2.806-9.468,4.991c-3.02,2.033-6.244,4.876-9.523,8.481  c-1.606,1.772-3.118,3.632-4.514,5.568c-1.396,1.945-2.68,3.967-3.598,5.485c-0.918,1.52-1.471,2.534-2.01,3.552  c-1.537,2.904-2.914,5.909-5.055,8.846c-0.655,0.909-1.346,1.799-2.036,2.608c-1.465,1.746-2.881,3.079-4.405,4.23  c-0.809,0.604-1.65,1.166-2.293,1.551c-1.269,0.756-1.98,0.932-2.968,1.085c-0.483,0.059-0.973,0.072-1.309,0.059  c-0.822-0.045-1.096-0.158-1.725-0.459c-0.238-0.139-0.43-0.277-0.629-0.611c-0.285-0.539-0.357-1.72-0.072-2.771  c0.552-1.725,2.129-4.328,3.955-6.637l0,0l29.331-37.152H200.42l0,0c-9.636,12.769-19.203,25.515-28.912,38.311  c-0.214,0.257-0.435,0.51-0.853,0.973c-0.418,0.458-1.032,1.124-1.648,1.783c-0.614,0.667-1.229,1.324-1.769,1.885  c-2.06,2.151-3.832,3.404-5.734,4.308c-1.174,0.475-2.937,0.674-4.224,0.062c-0.267-0.128-0.524-0.273-0.681-0.388  c-0.551-0.453-0.449-0.517-0.568-0.826c-0.101-0.374-0.195-1.005-0.142-1.526c0.192-1.492,1.213-4.14,2.918-6.243  c16.546-20.448,33.004-40.861,49.505-61.296l0,0h-12.135l-44.22,58.865l0,0C151.202,78.883,150.404,79.856,149.594,80.814  L149.594,80.814L149.594,80.814L149.594,80.814z M199.693,86.011c0.07-0.419,0.165-0.84,0.285-1.245  c0.122-0.413,0.269-0.813,0.603-1.634c0.33-0.81,0.852-2.037,1.423-3.242c0.573-1.206,1.198-2.377,2.249-4.108  c1.052-1.733,2.528-4.013,4.103-6.228c1.572-2.212,3.238-4.358,4.639-6.099c1.4-1.747,2.531-3.085,3.671-4.414  c1.139-1.336,2.286-2.659,3.322-3.816c1.033-1.154,1.956-2.135,2.911-3.081c0.954-0.946,1.945-1.858,2.765-2.576  c1.644-1.447,2.77-2.262,4.168-3.155c0.701-0.443,1.423-0.854,1.951-1.138c1.041-0.559,1.545-0.709,2.302-0.899  c1.095-0.198,1.992-0.508,3.048,0.58c0.993,1.429,0.553,2.512,0.198,3.954c-0.402,1.384-1.646,3.747-2.881,5.7  c-0.347,0.577-0.69,1.144-1.315,2.12c-1.247,1.966-3.367,5.075-5.507,7.619l0,0l-9.685,12.895l0,0  c-0.296,0.396-0.606,0.783-0.927,1.164c-0.319,0.379-0.65,0.744-1.209,1.331c-0.559,0.591-1.346,1.397-2.134,2.203  c-2.337,2.412-4.234,4.191-6.223,5.415c-2.333,1.351-4.637,2.876-7.126,2.122c-0.928-0.609-0.714-1.443-0.756-2.194  C199.574,86.856,199.627,86.43,199.693,86.011L199.693,86.011L199.693,86.011L199.693,86.011z"/>
<path fill="#FFD400" d="M54.372,104.532c-1.757,0.017-3.515,0.043-5.842-0.068c-2.324-0.115-5.222-0.361-8.027-1.027  c-2.809-0.661-5.525-1.725-8.04-3.149c-2.514-1.418-4.827-3.182-6.515-4.68c-1.691-1.501-2.76-2.726-3.752-4.003  c-0.993-1.279-1.908-2.618-2.716-4.017c-0.807-1.399-1.509-2.855-2.027-3.996c-1.007-2.229-1.443-3.556-1.938-5.3  c-0.232-0.846-0.432-1.703-0.595-2.572c3.806,0.735,7.873,0.454,11.838-1.364c0.24-0.127,0.474-0.264,0.698-0.451  c0.225-0.194,0.437-0.437,0.943-0.261c0.508,0.173,1.311,0.75,2.167,1.193c0.854,0.431,1.761,0.71,2.687,0.883  c0.927,0.166,1.872,0.227,2.628,0.224c1.456-0.022,2.393-0.249,3.55-0.522c0.549-0.131,1.093-0.298,1.973-0.664  c0.88-0.368,2.096-0.934,3.25-1.612c1.157-0.679,2.248-1.462,3.262-2.341c1.013-0.87,1.948-1.836,2.84-2.882  c1.849-2.174,3.443-4.542,4.801-6.889c0.702-1.219,1.354-2.468,1.995-3.846c1.322-2.835,2.515-6.008,3.361-9.074  c0.438-1.575,0.809-3.166,1.068-4.496c0.508-2.601,0.646-4.469,0.68-6.668c0.009-1.072-0.027-2.145-0.114-3.032  c-0.235-2.274-0.818-3.97-2.372-6.007c-0.481-0.698-1.431-1.546-2.301-1.967c3.06-1.515,6.202-2.695,9.362-3.529  c1.615-0.427,3.25-0.765,4.546-1.002c2.518-0.454,4.089-0.574,6.08-0.627c3.831,0.033,7.579,0.058,11.536,2.303  c-1.152,0.836-2.307,1.678-3.396,2.592c-2.261,1.752-4.089,3.96-6.015,6.058c-2.279,2.6-4.156,5.358-5.831,8.106  c-0.859,1.426-1.661,2.886-3.699,6.969s-5.312,10.781-7.251,14.77c-1.939,3.989-2.546,5.259-3.14,6.534  c-1.246,2.658-2.552,5.674-4.113,8.824c-0.82,1.644-1.693,3.257-2.3,4.333c-0.604,1.08-0.941,1.621-1.286,2.153  c-0.921,1.385-1.685,2.735-3.231,4.103c-0.416,0.365-0.86,0.705-1.322,1.01c-2.101-0.392-4.208-0.727-6.403-0.313  c-0.491,0.115-0.966,0.302-1.406,0.542c-0.442,0.239-0.852,0.544-1.121,0.773c-0.773,0.688-0.789,1.129-0.771,1.745  c0.102,0.556,0.203,1.018,0.867,1.502c1.004,0.381,2.011,0.753,3.042,0.858c1.032,0.108,2.094-0.058,3.155-0.224  c0.966-0.413,1.931-0.84,2.556-1.127c1.177-0.546,1.419-0.691,2.07-1.01c2,0.283,4.105,0.19,6.149-0.351  c2.687-0.717,5.156-2.135,7.652-4.008c1.383-1.057,2.689-2.245,3.937-3.556c0.577-0.611,1.136-1.237,2.053-2.336  c0.921-1.1,2.199-2.672,3.423-4.29c1.229-1.613,2.402-3.27,3.271-4.54c0.866-1.269,1.427-2.158,1.978-3.054  c0.553-0.898,1.094-1.794,2.528-4.226c1.429-2.427,3.75-6.389,5.501-9.344c1.755-2.954,2.939-4.904,4.168-6.83  c1.227-1.925,2.498-3.822,3.401-5.141c0.904-1.316,1.437-2.053,1.973-2.787c0.541-0.734,1.085-1.464,1.519-2.018  c0.788-1.007,1.327-1.584,2.169-2.313c0.376-0.322,0.768-0.626,1.177-0.906c-0.405,0.997-1.338,1.965-1.671,2.921  c-0.357,0.751-0.711,1.496-1.065,2.246c-0.355,0.751-0.707,1.503-1.702,3.862c-0.997,2.36-2.636,6.33-3.703,8.935  c-1.066,2.6-1.561,3.83-2.061,5.063c-0.502,1.225-1.012,2.448-1.348,3.25c-0.635,1.496-0.796,1.823-1.182,2.665  c-1.763,3.766-3.476,7.518-5.292,11.307c-0.216,0.43-0.441,0.859-0.805,1.532c-0.707,1.305-1.869,3.452-2.889,5.232  c-1.309,2.289-2.76,4.354-4.878,6.526c-1.975-0.34-4.028-0.739-6.026-0.356c-0.482,0.098-0.957,0.216-1.313,0.336  c-0.642,0.219-0.994,0.44-1.451,0.808c-0.405,0.354-0.72,0.691-0.748,0.898c-0.195,0.592,0.282,1.764,1.354,2.338  c0.359,0.198,0.806,0.379,1.226,0.482c0.216,0.055,0.439,0.104,0.949,0.128c1.007,0.045,2.876,0.008,4.349-0.691  c0.723-0.324,1.401-0.786,2.043-0.961c0.645-0.17,1.252-0.058,1.754,0.241c0.566,0.081,1.136,0.14,1.708,0.188  c2.472,0.251,5.992-0.321,8.952-2.141c1.49-0.876,3.089-2.056,4.595-3.408c0.717-0.648,1.402-1.329,2.695-2.73  c1.292-1.391,3.192-3.503,5.028-5.674c1.836-2.162,3.613-4.38,7.483-9.455c3.871-5.08,9.839-13.02,14.188-18.752  c4.351-5.726,7.082-9.243,9.905-12.686c2.821-3.442,5.732-6.81,7.686-9.011c1.952-2.199,2.948-3.231,3.97-4.233  c1.023-0.999,2.078-1.967,2.921-2.709c1.685-1.476,2.755-2.237,4.132-3.147c0.683-0.445,1.378-0.865,2.343-1.408  c2.036-1.143,4.8-2.512,7.292-3.437c1.303-0.498,2.625-0.938,3.607-1.232c1.9-0.561,2.844-0.69,4.219-0.893  c0.65-0.085,1.306-0.151,2.189-0.199c0.88-0.049,1.987-0.077,3.095-0.058c1.107,0.017,2.213,0.083,3.105,0.164  c1.723,0.157,2.867,0.391,4.254,0.762c1.367,0.368,2.893,0.944,4.488,1.682c1.538,0.712,2.958,1.51,4.266,2.285  c0.605,0.355,1.205,0.717,1.672,1.005c0.874,0.546,1.397,0.926,2.054,1.478c0.191-0.112,0.381-0.226,0.074-0.675  c-0.306-0.452-1.11-1.242-1.911-2.033c-2.518-2.456-5.234-4.021-7.905-5.329c-0.953-0.461-1.926-0.89-3.221-1.328  c-2.686-0.924-6.312-1.668-9.568-1.635c-7.58,0.028-15.281,2.812-22.879,7.719c-1.34,0.862-2.651,1.772-3.929,2.721  c-1.28,0.951-2.531,1.941-4.411,3.679c-1.88,1.735-4.393,4.218-6.77,6.821c-2.38,2.601-4.624,5.327-7.165,8.601  c-2.544,3.274-5.393,7.09-8.127,10.988c-4.054,5.796-8.154,11.568-12.149,17.397c-1.326,1.894-2.663,3.783-3.733,5.272  c-1.065,1.49-1.866,2.582-2.677,3.658c-1.651,2.225-3.715,4.834-6.201,7.54c-1.289,1.392-2.636,2.737-3.613,3.665  c-0.979,0.937-1.585,1.449-2.224,1.929c-2.97,2.058-6.042,3.741-9.23,2.677c1.476-1.053,2.935-2.237,4.36-3.591  c0.687-0.652,1.344-1.324,2.266-2.321c0.914-1.007,2.093-2.334,3.245-3.684c1.155-1.353,2.286-2.716,3.133-3.791  c0.85-1.072,1.415-1.844,1.952-2.63c0.536-0.795,1.047-1.605,1.768-2.908c0.725-1.299,1.663-3.094,2.553-4.907  c0.893-1.814,1.733-3.652,2.659-5.736c0.924-2.086,1.934-4.419,2.906-6.767c0.972-2.35,1.906-4.716,2.668-6.675  c1.475-3.813,2.494-6.519,3.828-9.697l0,0l4.411-10.526l0,0c0.39-0.928,0.834-1.83,1.303-2.72c0.468-0.89,0.97-1.758,1.333-2.369  c0.678-1.138,1.002-1.579,1.576-2.31c0.36-0.499,0.959-0.96,1.143-1.429c0.053-0.158-0.214-0.488-0.434-0.504  c-0.095-0.023-0.417,0.053-0.743,0.134c-0.951,0.257-2.603,0.937-3.976,1.872c-3.712,2.564-7.404,5.607-11.071,9.458  c-2.342,2.465-4.429,5.007-6.253,7.587c-0.948,1.342-1.841,2.721-2.569,3.873c-0.731,1.155-1.297,2.089-1.855,3.026  c-0.555,0.937-1.103,1.88-2.659,4.603c-1.556,2.721-4.119,7.224-6.21,10.814c-2.09,3.588-3.712,6.263-5.413,8.886  c-1.701,2.625-3.481,5.197-4.798,7.028c-1.318,1.83-2.169,2.923-3.056,3.981c-0.887,1.067-1.807,2.098-2.688,3.019  c-3.213,3.328-6.159,5.253-9.398,6.673c-1.146,0.433-2.235,0.584-3.644,0.771c-0.614,0.075-1.006,0.048-1.506-0.053  c2.233-2.006,4.651-3.837,6.872-6.579c2.156-2.49,4.312-5.596,6.062-8.485c0.868-1.41,1.641-2.746,3.611-6.507  c1.975-3.761,5.148-9.954,6.996-13.564c1.845-3.611,2.364-4.643,2.899-5.667c0.536-1.023,1.092-2.038,1.919-3.498  c0.829-1.462,1.935-3.37,3.021-5.292c1.085-1.922,2.15-3.855,3.04-5.434c0.887-1.58,1.597-2.805,2.347-4.012  c0.747-1.208,1.531-2.388,2.098-3.217c1.051-1.537,1.562-2.143,2.454-3.125c0.846-0.031,1.689-0.091,2.528-0.184  c0.84-0.095,1.675-0.223,2.296-0.335c1.183-0.211,1.777-0.391,2.62-0.669c1.093-0.38,2.277-0.842,3.468-1.87  c1.514-1.302,1.769-2.236,0.831-3.525c-0.457-0.473-0.94-0.592-1.361-0.673c-0.589-0.092-1.802-0.059-2.883,0.181  c-1.355,0.284-3.543,1.233-5.559,2.51c-0.689,0.434-1.354,0.907-1.992,1.412c-1.345-0.968-2.724-1.782-4.137-2.469  c-0.714-0.371-1.455-0.685-2.667-1.099c-1.211-0.418-2.888-0.938-4.599-1.316c-6.604-1.502-13.626-0.69-20.436,1.469  c-1.612,0.55-3.208,1.144-4.397,1.632c-2.226,0.913-3.384,1.582-4.971,2.61c-0.938-0.274-1.901-0.425-2.861-0.464  c-1.062-0.058-2.609,0.131-4.272,0.472c-4.481,0.927-8.821,3.372-13.229,6.631c-1.768,1.208-3.748,2.82-5.786,4.812  c-1.022,1.007-1.992,2.074-2.897,3.193c-0.903,1.115-1.746,2.287-2.41,3.263c-1.298,1.906-2.07,3.34-2.91,5  c-0.403,0.807-0.778,1.596-1.155,2.391c-0.373,0.79-0.747,1.582-1.22,2.697c-1.016,2.35-2.172,5.6-2.789,8.499  c-0.96,4.309-1.228,8.294-0.912,12.252c-0.767-0.469-1.523-1.049-2.253-1.783c-0.342-0.342-0.661-0.699-1.059-1.23  c-0.872-1.151-1.827-2.772-2.408-4.238c-1.469-3.768-1.827-7.652-1.404-11.55c0.176-1.526,0.494-3.034,0.896-4.413  c0.784-2.655,1.867-5.019,3.222-7.468c1.259-2.219,2.742-4.375,4.454-6.47c0.811-0.99,1.664-1.944,3.06-3.326  c2.788-2.79,7.45-6.857,11.375-9.717c4.008-2.977,7.605-5.149,11.505-7.013c1.999-0.952,4.045-1.806,6.521-2.706  C49.91,8.791,56.201,6.928,62.01,5.56c6.706-1.473,13.47-2.115,20.227-2.178c6.595,0.094,13.262,0.758,19.938,2.622  c1.987,0.547,3.946,1.183,5.574,1.749c1.625,0.566,2.921,1.06,4.21,1.568c4.706,1.802,9.332,3.981,13.988,7.418l0,0l0.648-0.658l0,0  c-1.721-1.39-3.507-2.695-5.353-3.909c-1.848-1.214-3.752-2.341-5.706-3.37c-1.956-1.03-3.962-1.967-6.145-2.855  c-4.481-1.827-9.449-3.344-14.264-4.276c-2.464-0.483-4.949-0.84-7.188-1.079c-2.233-0.24-4.22-0.361-6.208-0.453  c-1.988-0.092-3.976-0.158-6.456-0.134c-5.029,0.036-11.474,0.494-17.271,1.597c-2.926,0.543-5.828,1.222-8.532,1.981  c-2.708,0.76-5.217,1.6-7.687,2.546c-2.469,0.943-4.898,1.992-7.277,3.145c-2.378,1.154-4.706,2.41-6.765,3.624  c-2.061,1.216-3.852,2.387-5.583,3.643c-1.733,1.253-3.404,2.589-4.701,3.702c-2.631,2.26-4.039,3.827-5.675,5.772  c-0.814,0.987-1.586,2.004-2.407,3.186c-2.536,3.668-5.097,8.121-6.603,12.113c-1.49,3.892-2.586,8.351-2.761,12.401  c-0.1,3.786,0.315,7.662,2.27,11.589c0.606,1.223,1.336,2.395,2.167,3.483c1.906,2.542,4.386,4.424,6.651,5.615  c1.16,5.229,2.662,10.644,6.154,16.003c0.77,1.213,1.596,2.398,2.946,3.91c1.35,1.513,3.226,3.354,5.283,4.972  c2.056,1.619,4.292,3.009,6.652,4.136c2.361,1.126,4.848,1.978,6.589,2.497c1.741,0.521,2.74,0.708,3.741,0.865  c2.031,0.321,4.107,0.496,6.211,0.554c1.066,0.034,2.132,0.034,3.805,0.026c1.67-0.003,3.943-0.019,6.795-0.019  c2.856,0.007,6.285,0.073,9.719,0.073l0,0l453.968-0.38l0,0c0,0.007,0.008,0,0.008,0c0.012-0.831,0.039-1.668,0.047-2.494  C366.801,104.538,210.583,104.475,54.372,104.532L54.372,104.532L54.372,104.532L54.372,104.532z M49.417,29.955  c1.852-1.128,3.731-2.101,5.619-2.935c0.85,0.304,1.69,0.826,2.393,1.648c0.7,0.826,1.077,1.752,1.347,2.537  c1.609,6.329,0.324,13.016-1.668,18.666c-1.438,4.366-3.296,8.666-6.229,12.762c-1.066,1.5-2.24,2.926-3.096,3.905  c-0.853,0.979-1.388,1.51-1.944,2.019c-2.958,2.71-6.023,4.116-8.955,4.373c-1.867,0.134-3.778,0.2-5.554-0.838l0,0l4.288-4.005l0,0  c1.342-1.421,2.585-2.936,3.713-4.534c1.127-1.598,2.138-3.275,2.9-4.62c0.764-1.345,1.279-2.366,1.758-3.393  c0.964-2.042,1.858-4.447,2.36-6.082c0.244-0.805,0.371-1.336,0.499-1.891c0.128-0.552,0.257-1.128,0.176-1.478  c-0.083-0.349-0.38-0.469-0.623-0.396c-0.92,3.286-2.499,6.48-4.494,9.823c-2.039,3.754-5.044,7.76-8.253,10.929  c-0.975,0.958-1.882,1.781-2.605,2.311c-0.714,0.533-1.443,0.979-2.179,1.355c-0.96-1.462-1.598-2.974-1.989-4.471  c-1.136-4.57-0.169-8.97,1.646-13.267c0.84-1.913,1.591-3.403,3.203-5.735c0.812-1.166,1.891-2.623,3.04-4.02  c1.15-1.398,2.374-2.734,3.658-4.01c1.324-1.23,2.648-2.462,4.037-3.615C44.733,33.152,47.108,31.342,49.417,29.955L49.417,29.955  L49.417,29.955L49.417,29.955z M14.277,69.715c-0.112-1.989-0.131-3.595,0.147-6.067c0.146-1.272,0.382-2.855,0.7-4.423  c0.895-4.443,2.542-8.866,4.648-12.927c1.245-2.403,2.721-4.885,4.294-7.087c0.759-1.062,1.518-2.016,2.319-2.935  c2.649-3.032,5.331-5.174,7.659-6.792c2.398-1.658,4.918-3.019,6.748-3.797c1.146-0.483,2.288-0.886,3.432-1.119  c1.172-0.24,2.365-0.305,3.527-0.216c-1.546,1.022-3.052,2.107-4.504,3.259c-1.453,1.147-2.857,2.36-3.935,3.323  c-1.075,0.965-1.828,1.68-2.575,2.399c-0.75,0.719-1.497,1.442-2.306,2.276c-0.811,0.835-1.683,1.783-2.516,2.766  c-0.835,0.984-1.625,2.003-2.375,3.052c-1.391,1.964-2.533,3.813-3.292,5.276c-0.666,1.286-1.217,2.479-1.553,3.416  c-0.542,1.454-0.874,3.005-1.214,4.836c-0.131,0.726-0.251,1.448-0.337,2.056c-0.193,1.436-0.277,2.722-0.02,4.631  c0.087,0.638,0.223,1.423,0.383,2.203c0.303,1.494,0.817,3.232,1.226,4.392c0.193,0.55,0.332,0.892,0.484,1.227  c0.296,0.653,0.653,1.297,1.075,1.925c-0.861,0.511-1.775,0.943-2.725,1.276c-3.05,0.959-6.121,1.398-8.985-0.092  C14.443,71.626,14.34,70.67,14.277,69.715L14.277,69.715L14.277,69.715L14.277,69.715z"/>
<path fill="#FFD400" d="M151.737,30.477c1.021,0.074,2.877-0.506,4.572-1.635c0.551-0.374,1.067-0.798,1.532-1.231  c1.019-0.948,1.683-1.91,2.126-2.944c0.591-1.45,0.826-2.758,0.389-4.005c-0.121-0.368-0.291-0.721-0.509-1.01  c-1.161-1.431-2.949-1.284-4.361-0.863c-0.526,0.148-1.652,0.639-2.785,1.373c-1.741,1.128-3.332,3.158-3.739,4.645  c-0.14,0.467-0.226,0.951-0.254,1.435c0.078,1.328-0.254,2.444,1.316,3.659C150.538,30.248,151.149,30.438,151.737,30.477  L151.737,30.477L151.737,30.477L151.737,30.477z"/>
<path fill="#FFFFFF" d="M484.277,92.523h38.686l0.013-24.641l-15.607,0.022l-0.021-54.686h-23.07V92.523L484.277,92.523z   M400.037,13.098l-23.094,0.05l0.054,27.896l-10.354,0.072V13.148h-23.202v79.329l23.32,0.021l-0.018-31.547l10.318,0.055v31.492  l22.976-0.008V13.098L400.037,13.098z M442.291,92.469h38.324V67.995l-15.17-0.031l0.031-54.788h-23.186V92.469L442.291,92.469z   M432.201,13.176h-22.706v79.28h22.706V13.176L432.201,13.176z"/>
</svg>