<?xml version="1.0" standalone="no"?>
<!DOCTYPE svg PUBLIC "-//W3C//DTD SVG 1.1//EN" "http://www.w3.org/Graphics/SVG/1.1/DTD/svg11.dtd" >
<svg xmlns="http://www.w3.org/2000/svg">
<metadata>
<json>
<![CDATA[
{
	"fontFamily": "whIconFont",
	"majorVersion": 2,
	"minorVersion": 8,
	"description": "v2.8 24 August 2015\nFont generated by IcoMoon.",
	"version": "Version 2.8",
	"fontId": "whIconFont",
	"psName": "whIconFont",
	"subFamily": "Regular",
	"fullName": "whIconFont"
}
]]>
</json>
</metadata>
<defs>
<font id="whIconFont" horiz-adv-x="1024">
<font-face units-per-em="1024" ascent="960" descent="-64" />
<missing-glyph horiz-adv-x="1024" />
<glyph unicode="&#x20;" horiz-adv-x="512" d="" />
<glyph unicode="&#xe600;" glyph-name="and-over" data-tags="and-over" d="M488.768 483.648c13.312 0 24 3.968 32 11.904s12.032 18.88 12.032 32.896c0 13.184-3.968 23.744-11.904 31.616s-18.368 11.904-31.36 11.904c-13.504 0-24.256-4.032-32.256-12.032s-11.968-18.624-11.968-31.808c0-14.016 3.968-24.896 11.904-32.768s18.368-11.712 31.552-11.712zM489.792 427.392c-17.216 0-29.952-5.888-38.4-17.728s-12.608-24.704-12.608-38.528c0-19.392 4.928-34.368 14.848-45.248s22.336-16.256 37.12-16.256c14.528 0 26.496 5.248 36.032 15.616s14.272 25.472 14.272 45.12c0 17.152-4.8 30.976-14.528 41.344s-21.952 15.68-36.736 15.68zM512 960c-282.752 0-512-229.248-512-512 0-282.688 229.184-512 512-512 282.752 0 512 229.312 512 512 0 282.752-229.248 512-512 512zM195.264 259.648v264.704c-25.664-24-55.936-41.728-90.752-53.248v63.744c18.304 6.016 38.208 17.408 59.712 34.176s36.224 36.288 44.224 58.624h57.024v-368h-70.208zM578.112 284.864c-21.504-21.184-50.304-31.744-86.080-31.744-33.344 0-61.056 8.768-83.264 26.24-26.176 20.608-39.232 49.024-39.232 84.992 0 19.84 4.928 38.016 14.72 54.656s25.344 29.376 46.528 38.4c-18.176 7.68-31.36 18.24-39.616 31.616s-12.416 28.096-12.416 44.096c0 27.328 9.536 49.92 28.608 67.776s46.208 26.752 81.344 26.752c34.816 0 61.888-8.896 81.152-26.752 19.2-17.856 28.864-40.384 28.864-67.776 0-17.024-4.352-32.128-13.248-45.376-8.704-13.248-21.184-23.36-37.184-30.4 20.288-8.128 35.84-20.096 46.336-35.776 10.624-15.616 15.872-33.664 15.872-54.208 0-33.856-10.752-61.376-32.384-82.496zM814.72 407.68v0-95.296h-64v95.232h-96v65.728h96v95.296h64v-95.232h96.256v-65.728h-96.256z" />
<glyph unicode="&#xe601;" glyph-name="account-details" data-tags="account-details" d="M768 704h192c35.328 0 64 28.672 64 64s-28.672 64-64 64h-192c-35.328 0-64-28.672-64-64s28.672-64 64-64zM960 576h-192c-35.328 0-64-28.672-64-64s28.672-64 64-64h192c35.328 0 64 28.672 64 64s-28.672 64-64 64zM960 64h-896c-35.328 0-64-28.672-64-64s28.672-64 64-64h896c35.328 0 64 28.672 64 64s-28.672 64-64 64zM960 320h-177.984c-31.68 19.776-79.552 42.176-143.040 66.432h-0.128c-97.216 31.872-140.16 67.776-140.16 137.856 0 42.048 32.448 26.432 46.656 103.552 5.952 32 34.56-0.384 40.064 72.576 0 29.056-15.616 35.904-15.616 35.904s8 42.88 11.072 75.904c3.776 41.28-23.744 147.776-171.2 147.776-147.392 0-175.040-106.688-171.136-147.968 3.136-33.152 11.072-76.224 11.072-76.224s-15.68-7.232-15.68-36.352c5.504-72.96 34.176-41.536 40-73.536 14.272-77.056 46.72-63.36 46.72-105.408 0-70.080-36.288-102.912-142.464-141.696-106.624-38.848-178.176-78.528-178.176-105.664 0-27.072 0-81.152 0-81.152h960c35.328 0 64 28.672 64 64s-28.672 64-64 64z" />
<glyph unicode="&#xe602;" glyph-name="account-nli" data-tags="account-nli" horiz-adv-x="1107" d="M839.808 244.48c-126.848 41.664-150.912 81.024-150.912 139.136 0 10.368 0.768 11.264 9.984 21.248 14.080 15.36 35.264 38.4 47.168 99.52 27.776 12.928 45.952 33.728 50.752 98.368 0 24.96-7.168 43.712-16.832 56.704 3.392 19.776 8.448 52.096 11.008 79.36 3.392 37.312-8.448 98.24-53.056 147.136-30.784 33.792-89.472 74.048-193.92 74.048-104.64 0-163.392-40.384-194.176-74.24-44.608-48.96-56.384-109.952-52.864-147.264 2.624-27.392 7.744-60.096 11.072-79.872-9.664-13.376-16.896-32.96-16.768-59.584 4.672-62.336 22.912-83.2 50.24-95.104 11.456-61.632 32.832-85.952 46.976-102.080 9.344-10.624 10.56-12.032 10.56-22.912 0-61.888-21.504-95.552-154.88-144.256-244.16-89.024-244.16-141.312-244.16-163.584v-135.104h1101.696v135.104c0 37.376-35.456 87.104-261.888 173.376zM1032.96 4.288h-964.928l-0.384 62.848c0.192 0.384 18.816 37.44 199.872 103.488 129.536 47.296 199.744 94.464 199.744 208.384 0 36.608-15.296 54.016-27.52 67.968-11.392 12.864-23.104 26.304-31.104 69.376-5.952 32.576-26.88 42.688-41.152 49.728 0 0.064-5.824 6.272-8.128 35.584 0 10.688 1.856 15.552 1.024 14.912l22.72 10.56-4.8 25.984c-0.064 0.384-9.664 52.032-13.376 91.776-1.6 17.6 3.648 60.032 35.392 94.912 31.36 34.432 79.68 51.904 143.68 51.904 63.936 0 112.256-17.408 143.616-51.776 31.744-34.752 37.12-77.248 35.52-94.784-3.712-39.68-13.312-91.072-13.376-91.456l-9.28-24.128 24.896-10.88c0-0.064 3.264-3.712 3.328-13.312-2.304-30.784-7.872-37.376-11.712-39.168-10.24-4.672-31.552-14.336-37.696-47.488-7.872-42.816-19.456-55.424-30.656-67.648-12.48-13.568-28.032-30.4-28.032-67.392 0-122.24 95.168-170.304 196.48-203.52 196.16-74.88 216.576-110.72 216.256-109.056l-0.384-66.816z" />
<glyph unicode="&#xe603;" glyph-name="accountLI" data-tags="accountLI" horiz-adv-x="1107" d="M851.968 195.2h-0.128c-129.6 42.56-186.88 90.368-186.88 183.872 0 56.128 43.2 35.264 62.208 138.048 7.872 42.624 46.080-0.576 53.44 96.768 0 38.72-20.8 47.808-20.8 47.808s10.624 57.152 14.784 101.248c4.992 55.040-31.808 197.056-228.352 197.056s-233.408-142.208-228.224-197.312c4.16-44.16 14.784-101.568 14.784-101.568s-20.864-9.664-20.864-48.512c7.296-97.28 45.504-55.36 53.376-98.048 19.008-102.72 62.208-84.416 62.208-140.544 0-93.504-48.384-137.216-190.016-188.864-142.080-51.84-237.504-104.832-237.504-140.928s0-108.224 0-108.224h1101.696c0 0 0 72.128 0 108.224 0 36.032-87.872 89.216-249.728 150.976z" />
<glyph unicode="&#xe604;" glyph-name="american-football" data-tags="american-football" d="M43.072-20.864c41.92-41.92 144.448-53.248 265.536-34.048l-299.584 299.584c-19.2-121.28-7.808-223.68 34.048-265.536zM980.864 916.864c-41.92 41.856-144.448 53.248-265.536 34.048l299.648-299.584c19.136 121.152 7.872 223.616-34.112 265.536zM239.36 720.64c-99.072-99.072-167.424-234.368-204.992-363.52l386.688-386.752c129.152 37.632 264.384 105.92 363.52 204.992s167.36 234.432 204.992 363.584l-386.624 386.688c-129.216-37.632-264.512-105.984-363.584-204.992zM717.312 554.56l-28.992-28.992-34.88 34.88-45.376-45.312 34.88-34.816-28.992-28.992-34.88 34.816-45.248-45.312 34.816-34.88-28.992-29.056-34.816 34.88-45.312-45.312 34.816-34.88-28.992-28.992-34.88 34.88-45.312-45.376 34.88-34.816-29.056-28.992-98.752 98.688 28.992 28.992 34.88-34.816 45.312 45.312-34.816 34.816 28.992 28.992 34.88-34.816 45.376 45.312-34.88 34.88 28.992 28.992 34.88-34.88 45.312 45.312-34.88 34.88 28.992 28.992 34.816-34.88 45.376 45.376-34.88 34.88 28.992 28.992 98.752-98.752z" />
<glyph unicode="&#xe605;" glyph-name="arcade, e-sports" data-tags="arcade" horiz-adv-x="1344" d="M1280 512h-320v384c0 35.328-28.672 64-64 64h-832c-35.328 0-64-28.672-64-64v-448c0-35.328 28.672-64 64-64h320v-384c0-35.328 28.672-64 64-64h832c35.328 0 64 28.672 64 64v448c0 35.328-28.672 64-64 64zM384 512h-256v256h256v-256zM768 64h-256v256h256v-256zM768 512h-256v256h256v-256zM1152 64h-256v256h256v-256z" />
<glyph unicode="&#xe606;" glyph-name="archery" data-tags="archery" horiz-adv-x="896" d="M447.104 817.28c-167.808 0-304.32-136.512-304.32-304.384 0-167.808 136.512-304.384 304.32-304.384s304.384 136.576 304.384 304.384c0 167.872-136.576 304.384-304.384 304.384zM447.104 325.312c-103.424 0-187.584 84.16-187.584 187.584s84.16 187.584 187.584 187.584c103.488 0 187.584-84.16 187.584-187.584s-84.16-187.584-187.584-187.584zM447.104 635.648c-67.648 0-122.688-55.040-122.688-122.752s55.040-122.752 122.688-122.752c67.712 0 122.752 55.040 122.752 122.752-0.064 67.712-55.104 122.752-122.752 122.752zM447.104 449.152c-35.264 0-63.808 28.544-63.808 63.808 0 35.2 28.544 63.808 63.808 63.808s63.808-28.544 63.808-63.808c-0.064-35.264-28.608-63.808-63.808-63.808zM687.616 136.128c124.16 79.424 206.528 218.432 206.528 376.768 0.064 246.912-200.128 447.104-447.040 447.104s-447.104-200.192-447.104-447.104c0-158.336 82.368-297.344 206.528-376.768l-86.4-151.104c-6.592-19.392 3.776-40.448 23.168-47.040 4.032-1.344 8.064-1.984 11.968-1.984 15.424 0 29.888 9.728 35.136 25.152l82.56 139.84c53.504-22.656 112.32-35.2 174.080-35.2s120.64 12.544 174.144 35.2l82.56-139.84c5.248-15.424 19.648-25.152 35.136-25.152 3.968 0 8 0.64 11.968 1.984 19.392 6.592 29.76 27.648 23.168 47.040l-86.4 151.104zM77.824 512.896c0 203.584 165.632 369.216 369.216 369.216s369.28-165.632 369.28-369.216c0-203.584-165.632-369.28-369.28-369.28-203.52 0.064-369.216 165.696-369.216 369.28z" />
<glyph unicode="&#xe607;" glyph-name="arrow-left" data-tags="arrow-left" horiz-adv-x="435" d="M434.24 758.336c0-6.464-2.496-12.16-7.424-17.152l-293.312-293.248 293.312-293.312c4.928-4.928 7.424-10.688 7.424-17.152s-2.496-12.16-7.424-17.152l-37.312-37.312c-4.928-4.928-10.688-7.424-17.152-7.424s-12.16 2.496-17.152 7.424l-347.776 347.84c-4.928 4.992-7.424 10.688-7.424 17.152s2.496 12.16 7.424 17.152l347.84 347.84c4.928 4.928 10.624 7.424 17.088 7.424s12.16-2.496 17.152-7.424l37.312-37.312c4.928-4.928 7.424-10.688 7.424-17.152v-0.192z" />
<glyph unicode="&#xe608;" glyph-name="arrow-right" data-tags="arrow-right" horiz-adv-x="435" d="M0 758.528c0 6.464 2.496 12.16 7.424 17.152l37.312 37.312c4.928 4.928 10.624 7.424 17.088 7.424s12.16-2.496 17.152-7.424l347.84-347.84c4.928-4.992 7.424-10.688 7.424-17.152s-2.496-12.16-7.424-17.152l-347.84-347.84c-4.928-4.928-10.688-7.424-17.152-7.424s-12.16 2.496-17.152 7.424l-37.248 37.312c-4.928 4.992-7.424 10.688-7.424 17.152s2.496 12.16 7.424 17.152l293.312 293.312-293.312 293.312c-4.928 4.928-7.424 10.624-7.424 17.088v0.192z" />
<glyph unicode="&#xe609;" glyph-name="athletics" data-tags="athletics" horiz-adv-x="883" d="M861.76-39.744c-30.784 14.72-81.216 25.856-94.528 66.496 0 0-0.704 107.776 9.088 168.704l4.928 48.256c0 0 10.496 39.872-22.4 55.296l-6.272 4.928c0 0-104.96 88.896-155.392 114.048 0 0 32.256 35.008 52.544 103.616 0 0 2.048 14.016 13.312 0 11.2-14.016 24.512-4.224 28.672-0.704 4.224 3.52 36.352 7.040 112 70.016 0 0 14.72 11.2 23.104 11.904s35.712 8.384 30.784 30.080c-4.928 21.696-31.552 35.008-31.552 35.008h-25.92c0 0-16.768-18.176-16.768-29.44 0-11.2-10.496-19.584-11.2-21.696s-44.096-29.44-70.016-29.44c0 0 7.744 47.616-12.544 84.672l-5.632 52.096c0 0-2.112 11.584-30.784 29.12l0.704 26.56h28.672c0 0 8.384 4.224 11.904 12.608s10.496 51.84 10.496 51.84l-6.336 78.336c0 0-6.976 46.912-78.336 35.712s-65.088-74.176-65.088-74.176-3.52-28.672 32.896-60.16l-13.248-21.056c0 0-39.872 4.224-54.592-9.024-14.72-13.312-112.704-77.056-135.104-116.928 0 0-21.696-22.464-5.632-45.504 16.064-23.104 90.944-119.616 90.944-119.616s-31.424-44.096-52.416-66.496c-20.992-22.464-28.672-59.52-32.192-69.312-3.52-9.856-30.784-39.168-39.936-45.504 0 0 18.176-13.248 26.624-18.88 0 0-47.552-67.2-60.928-91.648-13.312-24.512-31.488-25.216-33.6-25.92-2.112-0.64-74.88 11.264-121.088-29.376-46.208-40.576-88.192-22.4-88.192-22.4s-44.8 11.904-48.32-30.784c-3.52-42.688-6.272-45.504-13.312-65.088-6.976-19.584-11.904-57.344 0-64.384 11.904-6.976 28.672 30.784 28.672 30.784s50.368 62.272 57.408 67.2c6.976 4.928 158.144 37.76 158.144 37.76s46.208 4.928 65.088 2.816c18.88-2.112 39.936 10.496 39.936 10.496l5.568 6.976c0 0 94.464 58.112 143.488 129.472 0 0 50.368-3.456 83.968-14.656l3.648 22.336c0 0 45.504-24.64 109.184-28.8 0 0-20.288-53.76-9.728-108.416 10.496-54.592 30.080-89.6 25.856-124.608s-6.272-46.912-4.224-58.048c2.112-11.2 58.816-11.904 67.904-11.904s44.8-11.904 92.352-5.568c0 0 18.176 7.68-12.608 22.4zM485.888 580.352c-24.448 23.808-36.352 67.84-36.352 67.84 14.016 7.744 52.48 38.528 52.48 38.528 4.224-47.616-16.128-106.368-16.128-106.368z" />
<glyph unicode="&#xe60a;" glyph-name="australian-rules" data-tags="australian-rules" d="M951.36 885.568c-47.744 48.704-123.072 74.432-217.856 74.432-177.664 0-383.68-90.368-512.512-224.704-87.936-91.648-164.416-233.984-199.552-371.328-40.256-157.12-23.424-283.52 47.36-355.776 46.336-47.168 118.208-72.192 208-72.192 0 0 0 0 0.064 0 175.168 0 394.816 93.504 522.048 222.336 130.88 132.48 222.592 345.92 222.848 519.040 0.192 88.96-24.192 160.96-70.4 208.192zM254.72 233.792c0 0-62.72-29.184-88.768-21.312-21.248 6.464-33.536 71.488-15.296 158.208 18.816 89.472 50.944 210.816 156.544 329.152 0.064 0.064 0.128 0.128 0.192 0.192 56.96 59.328 131.2 109.44 214.72 144.96 78.080 33.152 160.384 51.392 231.808 51.392 52.992 0 97.344-9.92 128.384-28.288 12.288-8.512 13.056-54.72-15.872-108.16-28.864-53.376-116.16-171.776-220.224-263.808-104.064-92.16-335.296-241.856-391.488-262.336zM754.368 245.696c-70.656-71.552-177.344-131.776-284.48-165.568-3.328-0.704-6.592-1.344-9.728-1.92-41.344-7.424-90.944-10.304-111.36-5.376-27.328 6.656-20.864 30.784 0.704 45.12 21.504 14.336 193.344 150.848 285.696 245.12 84.864 86.656 258.944 271.104 307.968 371.904 1.344 2.88 4.672 2.88 4.992 0 1.344-12.928 1.856-25.472 1.792-36.928-0.384-147.712-82.624-337.984-195.584-452.352z" />
<glyph unicode="&#xe60b;" glyph-name="badminton" data-tags="badminton" d="M101.312 275.072l-52.352-52.352c-65.408-65.664-65.216-171.968 0.256-237.504 65.728-65.664 172.096-65.6 237.824 0l-0.064 0.128 52.032 52.032-237.696 237.696zM902.656 477.888l4.608 112.704c-3.456 4.48-110.208 17.344-110.208 17.344l-16.896 109.76c-2.88 2.816-109.76 18.944-109.76 18.944s-12.864 104.768-17.344 108.16l-113.216-4.736c0 0 2.112 117.504-2.112 119.936 0 0-96-11.072-127.040-63.808 0 0-164.288-409.088-165.696-419.2l-84.992-144.192 17.344-17.216 89.088 151.424c7.36 5.696 26.304 20.672 49.6 41.024-13.056-51.776-18.624-95.552-19.2-101.184l-91.84-118.976 24.448-24.448 95.808 124.352c9.344 3.84 32.896 13.888 61.76 28.48-12.16-43.968-17.984-79.424-18.816-84.544l-103.040-103.936 29.184-29.248 104.768 105.728c11.456 2.048 42.24 8.128 79.104 18.752-14.272-28.224-24.064-51.2-27.904-60.352l-124.288-95.808 24.384-24.384 119.104 91.712c5.504 0.704 48.832 6.144 100.224 19.072-20.096-22.976-34.88-41.664-40.512-48.96l-151.488-89.152 17.152-17.216 144.256 84.992c10.112 1.408 419.264 165.696 419.264 165.696 52.8 31.040 63.808 127.040 63.808 127.040-2.496 4.16-119.552 2.24-119.552 2.24z" />
<glyph unicode="&#xe60c;" glyph-name="bandy" data-tags="bandy" horiz-adv-x="1178" d="M1002.432 898.304c-2.56 5.376-7.104 9.536-12.672 11.584l-135.104 48.768c-5.568 2.048-11.776 1.728-17.152-0.768-5.376-2.56-9.536-7.104-11.584-12.736-1.536-4.224-152.768-423.040-186.944-505.344-45.056-108.608-157.76-162.944-344.704-166.016-85.44-1.472-155.648 21.248-217.6 41.28l-3.264 1.024c-5.888 1.92-12.288 1.28-17.728-1.728s-9.344-8.064-10.88-14.080l-44.16-172.608c-2.944-11.52 3.584-23.296 14.848-26.944l3.264-1.024c69.632-22.464 156.16-50.496 267.648-50.496 3.648 0 7.296 0 10.944 0.064 101.184 1.664 193.6 20.224 270.656 60.224 76.672 39.808 151.36 75.392 214.336 196.48 10.432 20.096 21.824 39.936 30.72 61.504 35.648 85.888 183.808 496.128 190.080 513.6 2.112 5.632 1.856 11.84-0.704 17.216zM1176.512 106.752c0-94.304-76.448-170.752-170.752-170.752s-170.752 76.448-170.752 170.752c0 94.304 76.448 170.752 170.752 170.752s170.752-76.448 170.752-170.752z" />
<glyph unicode="&#xe60d;" glyph-name="baseball" data-tags="baseball" d="M476.8 958.912c-292.416-18.432-511.488-291.968-472.256-580.544 35.904-264.512 276.8-458.24 542.272-441.344 266.88 16.768 474.88 246.144 477.312 510.912-2.688 293.504-253.568 529.536-547.328 510.976zM246.784 322.496c-8 1.856-16 3.776-24 5.632-41.216 9.728-58.688-53.632-17.472-63.232 8.32-1.984 16.576-3.904 24.832-5.888-1.536-4.864-3.136-9.728-4.8-14.528-9.088 3.52-18.112 7.104-27.264 10.752-16.64 6.656-36.032-7.104-40.384-22.848-5.12-18.752 6.336-33.856 22.912-40.512 6.784-2.624 13.632-5.376 20.352-8-2.048-4.48-4.224-8.896-6.4-13.248-7.104 3.904-14.336 7.744-21.44 11.776-8 4.352-15.744 4.992-22.656 3.52-24.768 34.112-44.928 71.616-59.328 111.36-48.896 134.976-26.752 285.312 52.608 403.84 2.112 3.2 4.352 6.272 6.592 9.344 6.656-1.344 14.080-0.448 21.632 3.712 7.872 4.352 15.744 8.704 23.68 13.056 2.176-4.48 4.352-8.896 6.528-13.376-7.232-2.88-14.4-5.76-21.504-8.576-16.64-6.592-28.096-21.696-22.976-40.384 4.352-15.872 23.68-29.504 40.384-22.912 9.472 3.712 18.944 7.488 28.416 11.264 1.664-4.864 3.392-9.792 4.928-14.72-9.088-2.112-18.048-4.224-27.136-6.4-41.216-9.728-23.68-73.088 17.472-63.296 8.704 1.984 17.344 4.096 26.048 6.080 0.96-4.608 1.856-9.216 2.688-13.888-6.144-0.768-12.352-1.536-18.496-2.368-17.792-2.24-32.832-13.184-32.832-32.768 0-16.192 15.040-35.072 32.896-32.832 8.768 1.088 17.664 2.24 26.56 3.328 0.32-4.992 0.832-9.984 1.088-14.976-9.28 0-18.432 0-27.712 0-42.304 0-42.304-65.664 0-65.664 9.152 0 18.24 0 27.392 0-0.32-4.992-0.832-9.856-1.28-14.848-10.304 1.216-20.608 2.624-30.912 3.84-17.792 2.24-32.768-16.64-32.768-32.768 0-19.648 15.040-30.656 32.832-32.896 7.424-1.024 14.784-1.856 22.272-2.88-0.96-4.544-1.728-9.088-2.752-13.696zM741.376 65.024c-108.928-65.408-242.112-80.128-364.48-43.008-33.536 10.24-65.472 24.768-95.232 42.752 19.648 11.392 27.52 42.752 1.856 56.896-10.304 5.632-20.608 11.392-30.912 17.024 3.392 6.912 6.656 13.824 9.792 20.8 10.624-4.096 21.184-8.384 31.744-12.48 16.704-6.656 36.032 6.976 40.384 22.848 5.12 18.624-6.336 33.728-22.912 40.384-8.384 3.392-16.832 6.656-25.28 9.984 2.752 7.872 5.312 15.744 7.744 23.616 9.664-2.24 19.456-4.608 29.12-6.848 41.216-9.728 58.688 53.632 17.408 63.36-10.048 2.368-20.096 4.736-30.208 7.104 1.408 6.72 2.752 13.632 4.032 20.608 11.328-1.472 22.72-2.816 34.048-4.288 17.792-2.24 32.832 16.64 32.832 32.896 0 19.648-15.040 30.528-32.832 32.768-8.512 1.088-16.96 2.176-25.472 3.2 0.704 7.744 1.216 15.36 1.6 23.104 9.792 0 19.712 0 29.504 0 42.368 0 42.368 65.664 0 65.664-9.664 0-19.392 0-29.056 0-0.064 0.768 0 1.536-0.064 2.304-0.256 6.976-0.768 13.952-1.28 20.928 10.112 1.28 20.288 2.56 30.464 3.84 17.728 2.24 32.896 13.248 32.896 32.832 0 16.192-15.040 35.072-32.896 32.832-12.8-1.664-25.664-3.264-38.528-4.864-1.28 6.912-2.56 13.824-3.968 20.736 9.6 2.304 19.328 4.544 28.928 6.848 41.216 9.728 23.744 73.088-17.408 63.36-9.28-2.24-18.56-4.416-27.776-6.656-2.496 8-5.12 15.936-7.872 23.808 8 3.2 16.064 6.4 24.064 9.536 16.64 6.592 28.032 21.696 22.912 40.384-4.352 15.872-23.68 29.504-40.384 22.912-10.368-4.032-20.672-8.192-31.040-12.288-3.2 7.040-6.592 13.952-9.984 20.864 8.96 4.992 17.984 9.92 26.944 14.912 24.96 13.696 18.112 43.712-0.32 55.808 108.288 64.448 243.2 81.92 366.784 44.288 34.88-10.56 67.52-25.472 97.728-43.968-18.88-11.84-25.984-42.304-0.896-56.128 9.024-4.992 17.984-9.92 27.008-14.848-3.392-6.912-6.72-13.824-9.984-20.864-10.368 4.096-20.736 8.192-30.976 12.288-16.768 6.592-36.096-7.104-40.384-22.912-5.12-18.688 6.272-33.792 22.848-40.384 8-3.2 16-6.4 24.128-9.536-2.752-7.872-5.376-15.808-7.872-23.808-9.28 2.176-18.624 4.352-27.904 6.592-41.152 9.728-58.624-53.568-17.344-63.296 9.6-2.304 19.264-4.544 28.864-6.848-1.344-6.848-2.624-13.76-3.904-20.736-12.864 1.6-25.728 3.264-38.656 4.864-17.728 2.24-32.768-16.64-32.768-32.832 0-19.648 14.976-30.592 32.768-32.832 10.24-1.28 20.352-2.56 30.528-3.84-0.512-6.912-1.024-13.888-1.28-20.928-0.128-0.768-0.128-1.536-0.128-2.304-9.6 0-19.392 0-29.12 0-42.24 0-42.24-65.664 0-65.664 9.856 0 19.776 0 29.632 0 0.384-7.616 0.896-15.36 1.472-23.104-8.384-1.024-16.896-2.112-25.344-3.136-17.728-2.24-32.768-13.248-32.768-32.896 0-16.256 14.976-35.136 32.768-32.896 11.392 1.472 22.72 2.88 33.984 4.352 1.28-6.848 2.624-13.76 4.032-20.608-9.984-2.368-20.096-4.736-30.144-7.104-41.28-9.728-23.744-73.152 17.344-63.36 9.728 2.368 19.52 4.608 29.12 6.848 2.496-7.872 4.992-15.744 7.744-23.616-8.384-3.264-16.896-6.656-25.28-9.984-16.64-6.528-28.032-21.632-22.848-40.384 4.224-15.872 23.616-29.504 40.384-22.848 10.496 4.096 21.12 8.384 31.744 12.48 3.136-6.976 6.4-13.888 9.728-20.736-10.24-5.76-20.608-11.392-30.848-17.152-25.472-14.016-17.856-45.12 1.472-56.64zM872.96 185.856c-6.848 1.472-14.656 0.896-22.528-3.52-7.232-4.032-14.4-7.872-21.504-11.904-2.112 4.48-4.352 8.896-6.4 13.376 6.72 2.624 13.504 5.376 20.352 8 16.64 6.656 28.032 21.76 22.848 40.384-4.352 15.872-23.744 29.632-40.384 22.976-9.024-3.648-18.112-7.232-27.264-10.752-1.6 4.736-3.264 9.6-4.736 14.528 8.256 1.856 16.512 3.904 24.768 5.76 41.28 9.728 23.744 73.152-17.472 63.36-8-1.856-16-3.776-24-5.632-0.896 4.48-1.728 9.152-2.624 13.76 7.36 1.024 14.848 1.856 22.272 2.88 17.728 2.24 32.896 13.248 32.896 32.768 0 16.256-15.104 35.136-32.896 32.896-10.368-1.28-20.608-2.624-30.848-3.904-0.384 4.992-1.024 9.856-1.28 14.848 9.152 0 18.24 0 27.392 0 42.368 0 42.368 65.664 0 65.664-9.28 0-18.496 0-27.648 0 0.128 4.992 0.64 9.984 1.024 14.976 8.896-1.152 17.728-2.24 26.624-3.392 17.728-2.24 32.768 16.64 32.768 32.832 0 19.584-14.976 30.592-32.768 32.832-6.272 0.768-12.352 1.536-18.496 2.304 0.896 4.672 1.728 9.28 2.624 13.952 8.768-2.048 17.344-4.096 26.112-6.144 41.152-9.728 58.624 53.568 17.344 63.296-9.024 2.112-17.984 4.288-27.136 6.4 1.6 4.928 3.264 9.792 4.992 14.656 9.472-3.776 18.88-7.488 28.352-11.264 16.64-6.592 36.032 7.104 40.384 22.912 5.12 18.688-6.272 33.792-22.848 40.384-7.232 2.816-14.4 5.696-21.504 8.512 1.984 4.48 4.224 8.96 6.4 13.376 8-4.352 15.872-8.704 23.744-13.056 7.232-3.968 14.272-4.992 20.608-3.968 54.080-75.072 85.312-166.976 86.208-262.016-0.896-95.040-31.040-186.56-85.376-262.080z" />
<glyph unicode="&#xe60e;" glyph-name="basketball" data-tags="basketball" d="M957.056 700.928c-49.472 87.104-124.608 160.384-220.48 207.104l-187.264-444.928 92.928-39.104c63.552 131.52 177.216 230.912 314.816 276.928zM331.392 493.12l-301.504 126.912c-45.12-126.144-37.568-259.456 12.16-374.848 126.272 39.36 230.592 128.128 289.344 247.936zM405.952 523.456l90.944-38.272 187.264 444.928c-100.032 35.776-204.544 38.4-301.056 13.248 63.232-130.176 72.448-282.112 22.848-419.904zM328.384 925.696c-117.184-45.12-217.792-132.864-276.416-253.248l301.44-126.848c44.096 125.056 34.304 262.912-25.024 380.096zM383.872 471.040c-64.128-132.608-177.856-231.616-316.032-277.248 49.408-86.656 124.352-159.488 219.84-205.888l187.264 444.864-91.072 38.272zM982.592 649.472c-125.504-39.744-229.632-128.832-288-247.552l299.648-126.016c44.928 125.632 37.568 258.496-11.648 373.568zM696.96-29.312c116.736 45.248 216.896 132.864 275.264 252.736l-299.648 126.144c-44.032-124.48-34.88-261.376 24.384-378.88zM620.16 371.712l-92.928 39.040-187.264-444.928c100.352-35.904 205.312-38.4 302.144-12.864-63.168 130.496-71.36 281.472-21.952 418.752z" />
<glyph unicode="&#xe60f;" glyph-name="beach-soccer" data-tags="beach-soccer" horiz-adv-x="1152" d="M886.976 588.224l179.84 65.728c2.688 19.712-6.144 59.392-50.816 137.472-63.616 75.328-145.92 133.568-239.744 168.576-8.832 0-88-0.768-136.704-30.976 10.048-35.648 41.472-148.672 54.848-218.624l192.576-122.176zM183.296 742.528c-0.256-59.712 16.96-133.76 16.96-133.76l278.656-41.472 173.824 142.784c-16.192 81.216-55.296 217.28-55.744 218.688l0.32 0.064c-57.088 16.768-153.6 21.248-153.6 21.248-162.176-50.432-259.328-206.080-260.416-207.552zM183.296 742.528v0 0.064zM319.744 935.68c-95.744-47.872-176.192-121.472-232.576-211.904 20.288 19.648 44.608 39.808 67.904 49.664 18.048 25.152 78.592 103.936 164.672 162.24zM546.304 283.52c4.672 6.912 8.96 13.312 12.352 18.368-20.864 43.392-64.256 136.32-95.232 225.664l-272.768 39.744c0 0-54.592-67.84-96.704-157.632 3.456-13.696 10.56-39.68 20.544-71.424 93.184 0.192 255.488-8.064 431.808-54.72zM1117.12 321.024c9.28-0.32 17.408-4.288 23.616-10.24 6.976 35.52 11.264 72.128 11.264 109.76 0 17.728-1.088 35.264-2.688 52.672-7.488 28.096-29.952 99.328-72.576 140.672l-172.16-62.848c-6.272-50.496-18.496-154.112-48.704-229.312 0 0 4.544-7.296 10.88-17.6 78.912 12.736 163.52 19.776 250.368 16.896zM1117.12 174.72c-174.848 5.888-340.48-28.672-469.504-68.224-305.472 106.176-601.792 83.904-614.4 82.88-19.84-1.6-34.688-18.944-33.088-38.72 1.6-19.84 18.944-34.56 38.848-33.024 2.624 0.192 235.776 17.536 492.992-51.008-84.288-32.384-137.152-60.096-142.592-62.976-17.6-9.344-24.192-31.104-14.848-48.64 6.528-12.096 19.008-19.008 31.936-19.008 5.76 0 11.52 1.344 16.96 4.224 3.264 1.728 332.8 174.528 691.264 162.56 20.032-0.384 36.608 14.912 37.312 34.752 0.64 19.84-14.976 36.48-34.88 37.184z" />
<glyph unicode="&#xe610;" glyph-name="beach-handball" data-tags="beach-handball" horiz-adv-x="1152" d="M1117.12 174.72c-174.848 5.888-340.48-28.672-469.504-68.224-305.472 106.176-601.792 83.904-614.4 82.88-19.84-1.6-34.688-18.944-33.088-38.72 1.6-19.84 18.944-34.56 38.848-33.024 2.624 0.192 235.776 17.536 492.992-51.008-84.288-32.384-137.152-60.096-142.592-62.976-17.6-9.344-24.192-31.104-14.848-48.64 6.528-12.096 19.008-19.008 31.936-19.008 5.76 0 11.52 1.344 16.96 4.224 3.264 1.728 332.8 174.528 691.264 162.56 20.032-0.384 36.608 14.912 37.312 34.752 0.64 19.84-14.976 36.48-34.88 37.184zM983.296 791.296c-104.256 104.256-248.256 168.704-407.296 168.704s-303.040-64.448-407.296-168.704c-104.256-104.256-168.704-248.256-168.704-407.296 0-28.16 2.688-55.616 6.592-82.688 5.952 8.768 15.168 15.168 26.56 16.064 0.128 0 0.896 0.064 1.152 0.064-5.824 14.080-11.072 28.608-14.848 44.16-0.256 7.424-0.448 14.912-0.448 22.4 0 28.48 2.112 56.448 6.272 83.776 8.576 23.744 18.176 46.336 29.504 66.944 10.048 18.304 21.376 34.944 34.624 49.28 11.392-6.080 23.68-11.84 36.992-17.344 13.44-5.568 27.904-10.752 43.456-15.616-8.064-37.248-11.392-74.56-10.56-111.872 0.832-37.824 6.016-75.584 14.912-113.28-3.264-1.856-6.208-4.608-9.408-6.656 12.48-0.384 25.664-0.896 39.488-1.6-3.52 2.944-7.232 5.568-10.688 8.64-9.216 37.824-14.528 75.584-15.36 113.28s2.816 75.456 11.52 113.28c30.144 30.080 60.672 55.424 91.648 75.84 30.336 20.032 61.184 35.264 92.352 45.568 31.296-13.76 62.336-27.904 91.52-44.352 28.864-16.32 75.328-35.008 99.776-58.304v-231.104l-96.64-56.768c9.344-1.984 18.752-4.096 28.224-6.272l79.36 45.952 126.272-73.152c8.64 2.368 17.664 4.544 26.624 6.848l-142.72 83.776 0.768 230.72c24.512 23.296 70.912 41.984 99.776 58.304 29.184 16.448 60.224 30.592 91.52 44.352 31.232-10.304 62.016-25.536 92.352-45.568 30.976-20.416 61.504-45.76 91.648-75.84 8.704-37.824 12.352-75.584 11.52-113.28s-6.144-75.456-15.36-113.28c-13.312-11.84-27.136-22.912-41.344-33.344 11.584 1.472 23.36 2.56 35.136 3.712 5.312 4.352 10.816 8.32 16 12.864 4.928-2.816 9.344-6.848 14.144-9.984 10.048 0.768 20.16 1.152 30.336 1.728-11.392 8.64-22.72 17.6-34.816 24.64 8.896 37.696 14.080 75.456 14.912 113.28 0.832 37.376-2.56 74.624-10.624 111.872 15.552 4.864 30.016 10.048 43.456 15.616 13.312 5.504 25.6 11.264 37.056 17.344 13.184-14.336 24.576-30.976 34.624-49.28 11.264-20.608 20.864-43.2 29.504-66.944 4.032-27.328 6.208-55.296 6.208-83.776 0-7.488-0.128-14.976-0.448-22.4-5.12-21.056-12.48-40.576-21.568-58.88 2.048-0.064 4.096 0.064 6.144-0.064 10.816-0.384 20.096-5.696 26.432-13.44 5.12 30.976 8.448 62.464 8.448 94.784 0 159.040-64.448 303.040-168.704 407.296zM47.168 559.36c7.936 23.808 17.344 46.976 28.288 69.248 0.064-9.92 0.768-19.776 1.984-29.504-11.2-11.904-21.248-25.216-30.272-39.744zM769.6 906.368c-12.032-4.096-22.848-8.832-32.512-14.144-14.784-8.192-26.944-17.792-36.672-28.608-79.232 23.616-169.664 23.616-248.832 0-9.792 10.88-21.888 20.416-36.672 28.608-9.664 5.312-20.48 10.048-32.512 14.144 123.904 45.952 263.296 45.952 387.2 0zM366.208 691.712c-32.256-10.816-64-26.624-95.296-47.232-31.36-20.672-62.272-46.144-92.608-76.16-16.192 4.928-31.104 10.304-44.8 15.936-13.44 5.504-25.792 11.392-37.248 17.536-1.408 11.008-2.048 21.952-1.792 32.896 0.256 11.968 1.536 24 4.032 36.16 23.488 39.040 51.648 74.944 83.648 106.944 49.024 49.024 107.136 88.96 171.648 117.056 20.48-4.928 37.632-11.392 51.968-19.328 12.416-6.784 22.592-14.72 30.784-23.552-16.384-22.4-30.272-46.912-41.792-73.28-11.904-27.072-21.312-56.192-28.544-86.976zM677.44 646.4c-29.376-16.576-76.288-35.648-101.44-59.072-25.152 23.424-72.064 42.496-101.504 59.072-28.864 16.256-58.944 30.080-89.216 43.456 6.912 28.8 15.744 55.936 26.88 81.28 11.648 26.624 25.792 51.264 42.688 73.664 77.248 23.424 165.056 23.424 242.304 0 16.896-22.4 31.040-47.040 42.752-73.664 11.072-25.344 19.968-52.48 26.88-81.28-30.336-13.376-60.416-27.2-89.344-43.456zM1055.744 601.792c-11.456-6.144-23.872-12.032-37.376-17.6-13.696-5.632-28.544-10.944-44.8-15.936-30.336 30.016-61.184 55.488-92.608 76.16-31.232 20.608-62.976 36.416-95.296 47.232-7.232 30.848-16.64 59.904-28.544 87.040-11.52 26.368-25.408 50.88-41.792 73.28 8.192 8.832 18.368 16.768 30.784 23.616 14.272 7.872 31.488 14.4 51.968 19.328 64.512-28.096 122.624-68.032 171.648-117.056 32-32 60.16-67.968 83.648-106.944 2.432-12.16 3.776-24.256 4.032-36.16 0.384-11.008-0.256-21.952-1.664-32.96zM1074.56 599.104c1.28 9.728 1.92 19.584 1.984 29.504 10.88-22.272 20.352-45.44 28.288-69.248-9.024 14.528-19.072 27.84-30.272 39.744z" />
<glyph unicode="&#xe611;" glyph-name="beach-volleyball" data-tags="beach-volleyball" horiz-adv-x="1152" d="M1117.12 174.72c-174.848 5.888-340.48-28.672-469.504-68.224-305.472 106.176-601.792 83.904-614.4 82.88-19.84-1.6-34.688-18.944-33.088-38.72 1.6-19.84 18.944-34.56 38.848-33.024 2.624 0.192 235.776 17.536 492.992-51.008-84.288-32.384-137.152-60.096-142.592-62.976-17.6-9.344-24.192-31.104-14.848-48.64 6.528-12.096 19.008-19.008 31.936-19.008 5.76 0 11.52 1.344 16.96 4.224 3.264 1.728 332.8 174.528 691.264 162.56 20.032-0.384 36.608 14.912 37.312 34.752 0.64 19.84-14.976 36.48-34.88 37.184zM576 960c-317.568 0-576-258.368-576-576 0-28.224 2.56-55.744 6.528-82.88 5.888 8.832 15.232 15.36 26.688 16.256 10.048 0.768 199.68 14.848 430.464-32.768 40.256 12.352 79.168 28.544 116.16 49.6 39.872-24.32 74.24-55.232 105.664-88.704 24.64 6.976 50.304 13.568 77.056 19.776-42.368 51.456-93.184 95.744-150.528 129.984-6.656 70.016 3.904 135.808 30.4 195.264 88.384-27.328 169.472-79.104 231.488-148.288 37.888-42.368 68.992-91.584 92.032-144.256 22.912 2.048 46.080 3.52 69.568 4.352-25.216 68.096-62.016 131.904-110.336 185.792-66.944 74.816-153.536 131.584-248.256 163.648 43.776 63.616 108.608 117.568 192.256 158.336 135.296-93.376 224.256-249.6 224.256-426.112 0-27.264-2.432-54.336-6.72-81.088 10.112-0.064 20.16 0.192 30.4-0.192 10.688-0.32 19.84-5.44 26.176-12.992 5.184 31.104 8.704 62.464 8.704 94.272 0 317.632-258.368 576-576 576zM58.56 384.64c0.32 251.52 180.992 461.44 419.328 507.392-108.352-114.688-208.896-251.2-208.896-427.52 0-46.336 5.504-92.096 16.192-136.704-78.976 1.28-156.864 20.864-226.624 56.832zM612.992 681.024c-56-85.312-79.488-182.336-69.888-288.512-56.512-31.68-117.696-51.968-182.144-60.416-1.856-0.256-3.712-0.448-5.568-0.64-11.584 43.2-17.472 87.808-17.472 133.056 0 176.576 117.696 316.48 238.080 436.864 79.808 0 155.328-18.176 222.976-50.496-78.592-45.056-142.208-102.976-185.984-169.856z" />
<glyph unicode="&#xe612;" glyph-name="bet-slip" data-tags="bet-slip" d="M0 960v-1024l128 128 128-128 128 128 128-128 128 128 128-128 128 128 128-128v1024h-1024zM512 192h-384v64h384v-64zM512 448h-384v64h384v-64zM512 704h-384v64h384v-64zM896 192h-256v128h256v-128zM896 448h-256v128h256v-128zM896 704h-256v128h256v-128z" />
<glyph unicode="&#xe613;" glyph-name="bowling" data-tags="bowling" d="M512 960c-282.304 0-512-229.696-512-512s229.696-512 512-512c282.304 0 512 229.696 512 512s-229.696 512-512 512zM512 19.2c-236.416 0-428.8 192.384-428.8 428.8s192.384 428.8 428.8 428.8 428.8-192.384 428.8-428.8-192.384-428.8-428.8-428.8zM500.672 547.2c-61.76 0-112-50.24-112-112s50.24-112 112-112c61.696 0 111.936 50.24 111.936 112s-50.176 112-111.936 112zM500.672 376.512c-32.32 0-58.688 26.304-58.688 58.688s26.304 58.752 58.688 58.752c32.256 0 58.56-26.368 58.56-58.752s-26.24-58.688-58.56-58.688zM579.008 566.4c61.76 0 112 50.24 112 112s-50.24 112-112 112c-61.76 0-112-50.24-112-112s50.304-112 112-112zM579.008 737.088c32.32 0 58.624-26.368 58.624-58.688s-26.304-58.688-58.624-58.688-58.56 26.368-58.56 58.688c0 32.32 26.24 58.688 58.56 58.688zM758.72 598.4c-61.76 0-112-50.24-112-112s50.24-112 112-112c61.76 0 112.064 50.24 112 112 0 61.76-50.304 112-112 112zM758.72 427.712c-32.448 0-58.752 26.304-58.752 58.688s26.304 58.752 58.752 58.752c32.512 0 58.816-26.368 58.752-58.752s-26.368-58.688-58.752-58.688z" />
<glyph unicode="&#xe614;" glyph-name="bowls" data-tags="bowls" d="M512 960c-282.816 0-512-229.248-512-512s229.184-512 512-512c282.752 0 512 229.248 512 512s-229.248 512-512 512zM170.56 457.408c0-15.296-12.416-27.648-27.648-27.648s-27.712 12.416-27.712 27.648c0 205.056 166.848 371.904 371.904 371.904 15.296 0 27.648-12.416 27.648-27.648s-12.352-27.712-27.648-27.712c-9.792 0-19.456-0.512-29.056-1.408-151.36-13.824-272.256-134.72-286.080-286.080-0.896-9.536-1.408-19.2-1.408-29.056zM512 251.904c-108.352 0-196.16 87.808-196.16 196.096 0 108.352 87.808 196.096 196.16 196.096 108.288 0 196.096-87.808 196.096-196.096s-87.808-196.096-196.096-196.096z" />
<glyph unicode="&#xe615;" glyph-name="boxing" data-tags="boxing" d="M1007.744 275.584l-62.912 78.656c-14.528 15.104-38.656 15.36-53.504 0.64l-291.392-291.52c-14.848-14.848-14.4-38.656 1.152-52.864l77.504-64.128c15.488-14.272 40.384-13.76 55.232 1.152l273.344 273.344c14.848 14.848 15.104 39.488 0.576 54.72zM965.76 239.104c0 0 3.264-10.88-26.048 12.352-22.848 3.904-21.376 16.64-79.232-35.264-107.008-96-187.136-163.136-187.136-163.136s165.504 198.272 204.608 237.376c39.040 39.168 76.608 7.552 103.68-22.464 27.072-30.144-15.872-28.864-15.872-28.864zM426.048 945.344c-280 96.64-422.848-314.112-425.984-405.504-1.92-56.384 52.48-134.848 156.352-219.648 124.992-100.736 167.104-130.88 167.104-130.88s-140.032-0.384-234.304 77.76l-4.416 3.776c-33.344-122.496 233.472-283.904 460.992-224.512 0 0 17.024 4.736 29.76 17.472 12.672 12.672 320.192 320.192 320.192 320.192 32.128 28.992-189.632 464.768-469.696 561.344zM62.912 625.088c-0.064 0 106.944 265.728 217.536 284.032 110.72 34.624 264.448-25.792 344.96-152.768-14.016 10.752-358.848 218.944-562.496-131.264z" />
<glyph unicode="&#xe616;" glyph-name="calculator" data-tags="calculator" horiz-adv-x="896" d="M832 960h-768c-35.392 0-64-28.608-64-64v-896c0-35.392 28.608-64 64-64h768c35.392 0 64 28.608 64 64v896c0 35.392-28.608 64-64 64zM256 64h-128v128h128v-128zM256 256h-128v128h128v-128zM256 448h-128v128h128v-128zM512 64h-128v128h128v-128zM512 256h-128v128h128v-128zM512 448h-128v128h128v-128zM768 64h-128v128h128v-128zM768 256h-128v128h128v-128zM768 448h-128v128h128v-128zM768 704h-640v128h640v-128z" />
<glyph unicode="&#xe617;" glyph-name="calendar" data-tags="calendar" d="M192 256h128v-128h-128v128zM224 768h64c17.664 0 32 14.336 32 32v128c0 17.664-14.336 32-32 32h-64c-17.664 0-32-14.336-32-32v-128c0-17.664 14.336-32 32-32zM192 448h128v-128h-128v128zM736 768h64c17.728 0 32 14.336 32 32v128c0 17.664-14.272 32-32 32h-64c-17.728 0-32-14.336-32-32v-128c0-17.664 14.272-32 32-32zM960 896h-64v-160c0-17.664-14.272-32-32-32h-192c-17.728 0-32 14.336-32 32v160h-256v-160c0-17.664-14.336-32-32-32h-192c-17.664 0-32 14.336-32 32v160h-64c-35.328 0-64-28.672-64-64v-832c0-35.328 28.672-64 64-64h896c35.328 0 64 28.672 64 64v832c0 35.328-28.672 64-64 64zM960 32c0-17.728-14.272-32-32-32h-832c-17.664 0-32 14.272-32 32v512c0 17.664 14.336 32 32 32h832c17.728 0 32-14.336 32-32v-512zM704 256h128v-128h-128v128zM704 448h128v-128h-128v128zM448 448h128v-128h-128v128zM448 256h128v-128h-128v128z" />
<glyph unicode="&#xe618;" glyph-name="canoeing" data-tags="canoeing" horiz-adv-x="1402" d="M1153.216 125.12c-14.016 19.008-33.216 50.112-64.64 55.232-13.76 2.304-48.896 8.704-69.952 10.816l-488.768 543.872c5.056 10.432 11.2 23.936 18.176 41.408 7.040 17.408 2.56 42.048-12.8 65.088-31.488 47.552-70.784 94.528-92.032 116.16-11.2 11.328-69.952-22.016-92.608-32.384-22.72-10.368-68.16-45.376-57.6-59.136 10.432-13.76 42.816-69.376 59.392-94.912 12.8-19.776 33.152-50.048 64.64-55.232 22.144-3.648 61.44-6.4 82.816-7.744l84.16-93.568c-255.808-55.872-631.36-180.16-579.072-229.056 129.984-121.472 519.232-147.776 860.416-83.968l116.032-129.088c-5.76-11.072-13.952-28.096-23.808-52.608-5.696-14.208-2.24-37.056 15.040-63.744 13.696-21.248 64.192-83.904 89.792-117.44 9.664-12.736 62.144 21.632 83.392 32.832 22.080 11.712 81.408 49.024 70.912 62.784s-49.472 71.744-63.488 90.688zM483.456 502.464c-4.032 27.072 48.96 58.624 128.192 81.408l103.488-115.072c-123.904-16.448-226.24-2.048-231.68 33.664zM697.984 636.928c-13.952-2.24-29.824-5.056-47.232-8.448l25.984-28.928c10.688 2.048 21.504 4.032 32.64 5.696 130.368 19.584 240.576 5.376 246.144-31.744 4.8-31.808-68.864-70.016-172.032-92.672l148.416-165.184c325.056 77.504 424.064 196.544 464.256 277.12 24.96 49.856-494.976 76.416-698.176 44.16z" />
<glyph unicode="&#xe619;" glyph-name="cards" data-tags="cards" horiz-adv-x="1280" d="M448 80v752h-368c-35.328 0-80-12.672-80-48v-768c0-35.328 44.672-80 80-80h640c35.328 0 64 64 64 64h-256c-35.328 0-80 44.672-80 80zM272 464c-51.904 80.576-128 101.952-128 183.424 0 40.064 30.080 72.576 67.2 72.576 26.88 0 50.048-23.616 60.8-48.32 10.752 24.704 33.92 48.32 60.8 48.32 37.12 0 67.2-32.512 67.2-72.576 0-78.912-78.976-103.36-128-183.424zM1216 960h-640c-35.328 0-64-28.672-64-64v-768c0-35.328 28.672-64 64-64h640c35.328 0 64 28.672 64 64v768c0 35.328-28.672 64-64 64zM784 592c-51.904 80.576-128 101.952-128 183.424 0 40.064 30.080 72.576 67.2 72.576 26.88 0 50.048-23.616 60.8-48.32 10.752 24.704 33.92 48.32 60.8 48.32 37.12 0 67.2-32.512 67.2-72.576 0-78.912-78.976-103.36-128-183.424z" />
<glyph unicode="&#xe61a;" glyph-name="click-and-buy" data-tags="click-and-buy" horiz-adv-x="4944" d="M849.792 733.504c0 0-34.496 34.496-83.264 34.496 0 0-48.768 0-83.264-34.496 0 0-34.496-34.496-34.496-83.264 0 0 0-48.768 34.496-83.264l64.832-64.512h-248.704c0 0-49.344 0-83.904-34.816 0 0-34.816-34.496-34.816-83.584 0 0 0-49.088 34.816-83.904 0 0 34.496-34.496 83.904-34.496h248.64l-64.832-64.832c0 0-34.496-34.496-34.496-83.264 0 0 0-48.768 34.496-83.264 0 0 34.496-34.24 83.264-34.24 0 0 48.768 0 83.264 34.24l266.176 266.496c0 0 34.496 34.496 34.496 83.264 0 0 0 48.768-34.24 83.264l-266.368 266.176zM157.184 548.16c-65.088 0-111.168-46.016-111.168-46.016-46.016-46.080-46.016-111.168-46.016-111.168 0-65.088 46.016-111.168 46.016-111.168 46.016-46.016 111.168-46.016 111.168-46.016 65.088 0 111.168 46.016 111.168 46.016 46.016 46.016 46.016 111.168 46.016 111.168 0 65.088-46.016 111.168-46.016 111.168-46.080 46.016-111.168 46.016-111.168 46.016zM1581.632 589.632c0 0-35.84 7.68-74.24 7.68-104.128 0-161.28-56.32-161.28-162.112v-119.488c0-105.792 58.048-162.112 161.28-162.112 34.944 0 74.24 7.68 74.24 7.68 11.968 2.56 16.192 8.512 16.192 17.92v52.032c0 9.408-5.952 13.632-15.36 12.8 0 0-35.008-5.12-68.288-5.12-54.592 0-74.24 31.552-74.24 79.36v115.2c0.064 46.080 17.984 78.528 73.472 78.528 31.552 0 68.288-5.12 68.288-5.12 10.24-0.896 16.192 4.288 16.192 13.632v52.096c0 9.344-5.12 15.296-16.256 17.024zM1735.296 768h-61.44c-9.408 0-16.256-6.848-16.256-16.256v-573.44c0-9.408 6.848-16.192 16.192-16.192h61.44c9.408 0 16.192 6.848 16.192 16.192v573.44c0.064 9.408-6.784 16.256-16.128 16.256zM1901.632 768h-61.44c-9.344 0-16.192-6.848-16.192-16.256v-61.44c0-9.408 6.848-16.192 16.192-16.192h61.44c9.408 0 16.256 6.848 16.256 16.192v61.44c0 9.408-6.848 16.256-16.256 16.256zM1901.632 588.8h-61.44c-9.408 0-16.192-6.848-16.192-16.192v-394.24c0-9.408 6.848-16.192 16.192-16.192h61.44c9.408 0 16.256 6.848 16.256 16.192v394.24c0 9.344-6.848 16.192-16.256 16.192zM2225.92 589.632c0 0-35.84 7.68-74.24 7.68-104.128 0-161.28-56.32-161.28-162.112v-119.488c0-105.792 58.048-162.112 161.28-162.112 34.944 0 74.24 7.68 74.24 7.68 11.968 2.56 16.192 8.512 16.192 17.92v52.032c0 9.408-5.952 13.632-15.36 12.8 0 0-35.008-5.12-68.288-5.12-54.592 0-74.24 31.552-74.24 79.36v115.2c0 46.080 17.92 78.528 73.408 78.528 31.552 0 68.288-5.12 68.288-5.12 10.24-0.896 16.192 4.288 16.192 13.632v52.096c0.064 9.344-5.12 15.296-16.192 17.024zM2501.568 402.752l105.856 169.792c5.12 7.68 0 16.192-9.408 16.192h-69.12c-9.408 0-17.088-8.512-22.208-16.192l-105.792-171.52 116.032-222.72c4.288-8.512 11.968-16.192 21.312-16.192h69.12c9.408 0 15.36 8.512 11.072 16.192l-116.864 224.448zM2379.52 768h-61.44c-9.408 0-16.192-6.848-16.192-16.256v-573.44c0-9.408 6.848-16.192 16.192-16.192h61.44c9.408 0 16.192 6.848 16.192 16.192v573.44c0.064 9.408-6.784 16.256-16.192 16.256zM2803.648 597.312c-71.68 0-127.168-17.92-127.168-17.92-10.24-2.56-16.192-8.512-16.192-17.92v-52.032c0-9.408 5.952-16.192 16.192-13.696 0 0 64 14.528 114.368 14.528 50.304 0 69.952-23.872 69.952-68.288v-34.112c-11.072 1.728-52.928 5.12-81.92 5.12-94.72 0-148.48-43.52-148.48-131.392 0-86.208 48.64-128 131.392-128 40.128 0 75.968 15.36 103.296 32.448v-7.68c0-9.408 6.848-16.192 16.192-16.192h57.152c9.408 0 16.192 6.848 16.192 16.192v263.68c0.064 102.4-37.44 155.264-150.976 155.264zM2860.864 256c-24.704-12.8-53.76-23.040-80.192-23.040-37.568 0-56.32 18.752-56.32 51.2 0 36.672 18.752 56.32 64.832 56.32h71.68v-84.48zM3226.88 597.312c-48.64 0-85.312-18.752-110.080-37.568v12.8c0 9.408-6.848 16.192-16.192 16.192h-57.152c-9.408 0-16.192-6.848-16.192-16.192v-394.24c0-9.408 6.848-16.192 16.192-16.192h61.44c9.408 0 16.192 6.848 16.192 16.192v306.368c23.872 12.8 52.928 24.768 79.36 24.768 45.248 0 57.152-25.6 57.152-65.728v-265.408c0-9.408 6.848-16.192 16.192-16.192h61.44c9.408 0 16.192 6.848 16.192 16.192v273.92c0.064 88.768-31.488 145.088-124.544 145.088zM3715.072 768h-61.44c-9.408 0-16.192-6.848-16.192-16.256v-177.472c-25.6 12.8-56.32 23.040-91.328 23.040-94.72 0-139.072-58.048-139.072-149.312v-145.088c0-91.328 44.352-149.312 139.072-149.312 36.672 0 69.12 13.632 95.552 29.888v-5.12c0-9.408 6.848-16.192 16.192-16.192h57.216c9.408 0 16.192 6.848 16.192 16.192v573.44c0 9.344-6.848 16.192-16.192 16.192zM3637.376 256.832c-23.040-11.072-48.64-19.648-71.68-19.648-46.912 0-64.832 29.888-64.832 72.512v132.288c0 42.688 17.92 72.512 64.832 72.512 23.040 0 48.64-6.848 71.68-16.192v-241.472zM3989.824 597.312c-35.008 0-66.56-11.072-92.16-26.432v180.864c0 9.408-6.784 16.256-16.192 16.256h-61.44c-9.408 0-16.192-6.848-16.192-16.256v-573.44c0-9.408 6.848-16.192 16.192-16.192h151.872c105.792 0 156.16 56.32 156.16 149.312v136.576c0 91.328-43.52 149.312-138.24 149.312zM4034.24 313.984c0-42.688-19.648-70.848-70.848-70.848h-65.664v251.776c23.040 11.072 49.472 19.648 72.512 19.648 46.912 0 64-29.888 64-72.512v-128.064zM4508.672 588.8h-61.44c-9.408 0-16.192-6.848-16.192-16.192v-306.368c-23.872-12.8-52.928-24.768-79.36-24.768-45.184 0-57.152 25.6-57.152 65.664v265.472c0 9.408-6.848 16.192-16.192 16.192h-61.44c-9.408 0-16.192-6.848-16.192-16.192v-273.92c0-88.768 31.552-145.088 124.608-145.088 48.64 0 85.312 18.752 110.080 37.568v-12.8c0-9.408 6.848-16.192 16.192-16.192h57.152c9.408 0 16.192 6.848 16.192 16.192v394.24c-0.064 9.344-6.848 16.192-16.256 16.192zM4930.24 588.8h-67.392c-9.408 0-15.36-6.848-18.752-15.36l-91.328-270.528-87.040 270.528c-2.56 9.344-9.408 15.36-18.752 15.36h-67.392c-10.24 0-15.36-7.68-12.8-16.192l135.68-413.888-48.64-142.528c-3.456-8.512 3.328-16.192 12.736-16.192h69.12c9.408 0 14.528 6.848 17.92 15.36l189.44 556.352c3.392 8.576-2.56 17.088-12.8 17.088z" />
<glyph unicode="&#xe61b;" glyph-name="collapsed" data-tags="collapsed" horiz-adv-x="749" d="M537.28 75.584c-12.608 0-23.488 4.608-32.768 13.824l-325.76 325.824c-9.216 9.28-13.824 20.16-13.824 32.768s4.608 23.488 13.824 32.768l325.824 325.824c9.216 9.216 20.16 13.824 32.768 13.824s23.488-4.608 32.768-13.824 13.824-20.16 13.824-32.768v-651.584c0-12.608-4.608-23.488-13.824-32.768s-20.224-13.888-32.832-13.888z" />
<glyph unicode="&#xe61c;" glyph-name="competitions" data-tags="competitions" d="M320 896h-256c-35.328 0-64-28.672-64-64s28.672-64 64-64h256c35.328 0 64 28.672 64 64s-28.672 64-64 64zM320 640h-256c-35.328 0-64-28.672-64-64s28.672-64 64-64h256c35.328 0 64 28.672 64 64s-28.672 64-64 64zM320 384h-256c-35.328 0-64-28.672-64-64s28.672-64 64-64h256c35.328 0 64 28.672 64 64s-28.672 64-64 64zM320 128h-256c-35.328 0-64-28.672-64-64s28.672-64 64-64h256c35.328 0 64 28.672 64 64s-28.672 64-64 64zM704 768h256c35.328 0 64 28.672 64 64s-28.672 64-64 64h-256c-35.328 0-64-28.672-64-64s28.672-64 64-64zM960 640h-256c-35.328 0-64-28.672-64-64s28.672-64 64-64h256c35.328 0 64 28.672 64 64s-28.672 64-64 64zM960 384h-256c-35.328 0-64-28.672-64-64s28.672-64 64-64h256c35.328 0 64 28.672 64 64s-28.672 64-64 64zM960 128h-256c-35.328 0-64-28.672-64-64s28.672-64 64-64h256c35.328 0 64 28.672 64 64s-28.672 64-64 64zM544 896h-64c-17.664 0-32-14.336-32-32s14.336-32 32-32h64c17.664 0 32 14.336 32 32s-14.336 32-32 32zM544 640h-64c-17.664 0-32-14.336-32-32s14.336-32 32-32h64c17.664 0 32 14.336 32 32s-14.336 32-32 32zM544 384h-64c-17.664 0-32-14.336-32-32s14.336-32 32-32h64c17.664 0 32 14.336 32 32s-14.336 32-32 32zM544 128h-64c-17.664 0-32-14.336-32-32s14.336-32 32-32h64c17.664 0 32 14.336 32 32s-14.336 32-32 32z" />
<glyph unicode="&#xe61d;" glyph-name="coupons" data-tags="coupons" d="M704 832h-640c-35.328 0-64-28.672-64-64v-768c0-35.328 28.672-64 64-64h640c35.328 0 64 28.672 64 64v768c0 35.328-28.672 64-64 64zM640 128h-512v64h512v-64zM640 256h-512v64h512v-64zM640 384h-512v64h512v-64zM640 512h-512v64h512v-64zM960 960h-640c-35.328 0-64-28.672-64-64h512c35.328 0 64-28.672 64-64v-128h64v-64h-64v-64h64v-64h-64v-64h64v-64h-64v-64h64v-64h-64v-192h128c35.328 0 64 28.672 64 64v768c0 35.328-28.672 64-64 64z" />
<glyph unicode="&#xe61e;" glyph-name="cricket" data-tags="cricket" horiz-adv-x="1094" d="M65.024 864c-72.576-88.192-64.768-168.576-64.768-168.576l694.4-550.336 116.736 51.904 162.496-117.76c27.904-22.976 44.608-36.224 76.736-33.152 10.112 1.024 22.656 2.112 33.984 15.872 11.392 13.888 10.112 26.368 9.152 36.48-3.136 32.128-47.232 68.864-47.232 68.864l-162.496 117.888 28.48 124.416-694.464 550.4c0 0-80.448-7.808-153.024-96v0zM203.904 314.752c-104.64 0-189.376-84.736-189.376-189.376 0-104.512 84.736-189.376 189.376-189.376s189.376 84.864 189.376 189.376c0 104.64-84.8 189.376-189.376 189.376z" />
<glyph unicode="&#xe61f;" glyph-name="cvv" data-tags="cvv" horiz-adv-x="1408" d="M1344 960h-1280c-35.328 0-64-28.672-64-64v-64h1408v64c0 35.328-28.672 64-64 64zM0 0c0-35.328 28.672-64 64-64h1280c35.328 0 64 28.672 64 64v640h-1408v-640zM64 286.976v225.024h1152v-256h-1152v30.976zM417.856 431.68l4.224-19.84 21.184 10.944h0.32v-101.248h25.024v124.928h-22.144zM498.24 440.32l4.416-19.584c4.608 2.88 10.944 6.336 18.816 6.336 10.368 0 15.936-7.104 15.936-17.088 0-17.92-13.248-35.008-29.44-55.552l-12.416-16v-16.896h68.416v22.080h-38.272v0.384l7.488 8.832c14.4 16.704 29.056 35.584 29.056 59.008 0 17.92-8.832 36.16-36.16 36.16-11.328 0-22.080-4.032-27.84-7.68zM643.584 357.632c0 16.896-9.216 27.712-21.376 31.744v0.384c10.944 5.184 17.92 15.552 17.92 28.096 0 15.936-10.944 30.144-32.896 30.144-10.368 0-20.544-3.264-25.728-6.528l3.264-19.072c4.608 2.88 10.176 4.992 15.744 4.992 8.832 0 14.592-5.376 14.592-14.4 0-12.096-11.904-15.936-21.184-16.128h-2.432v-18.432h3.456c12.864 0 23.424-5.952 23.424-19.776 0-10.56-6.72-18.048-18.816-18.048-6.72 0-13.632 1.92-18.624 4.8l-3.648-19.84c5.568-3.072 14.4-5.568 24.576-5.568 27.136 0 41.728 18.624 41.728 37.632zM699.392 321.536h22.272v29.76h12.48v20.224h-12.48v74.944h-24.256l-40.96-77.888v-17.28h42.88v-29.76zM677.824 371.52v0.384l13.504 26.304c3.264 6.912 5.76 12.544 8.64 19.392h0.768c-0.576-6.528-1.344-13.824-1.344-20.544v-25.536h-21.568zM828.8 442.176h0.576v-151.872h37.44v187.392h-33.152l-42.88-22.208 6.272-29.696zM1009.92 323.456h-57.408v0.576l11.264 13.248c21.632 25.088 43.52 53.312 43.52 88.512 0 26.816-13.312 54.208-54.208 54.208-16.96 0-33.152-6.016-41.792-11.52l6.656-29.44c6.912 4.288 16.384 9.536 28.16 9.536 15.616 0 24-10.688 24-25.664 0-26.816-19.84-52.48-44.096-83.328l-18.752-23.936v-25.408h102.656v33.216zM1129.216 344.448c0 25.408-13.888 41.536-32 47.552v0.64c16.512 7.808 26.816 23.36 26.816 42.112 0 23.936-16.384 45.312-49.28 45.312-15.552 0-30.784-4.928-38.592-9.856l4.864-28.544c6.912 4.288 15.296 7.488 23.616 7.488 13.312 0 21.888-8.064 21.888-21.632 0-18.112-17.856-23.936-31.68-24.192h-3.776v-27.648h5.184c19.264 0 35.2-8.96 35.2-29.696 0-15.808-10.112-27.136-28.288-27.136-10.112 0-20.48 2.88-28.032 7.232l-5.376-29.76c8.32-4.608 21.632-8.32 36.928-8.32 40.64 0 62.528 27.968 62.528 56.448zM373.312 366.976c-4.288-5.184-10.752-5.824-15.232-2.24-2.24 1.792-3.712 4.608-5.632 7.168-10.112-9.024-21.248-17.024-33.536-23.488-2.24-1.216-4.48-2.304-6.72-3.456-4.352-2.176-6.848-1.088-9.536 3.648-2.176 3.904-1.472 7.872 0.192 11.968 7.808 19.328 19.712 36.16 31.488 53.056 0.96 1.408 1.92 2.752 2.88 4.096-0.256 0.32-0.576 0.576-0.96 0.832-5.568-6.336-11.328-12.48-16.704-19.008-28.608-34.624-54.656-71.232-80.448-107.968-11.648-16.576-22.976-33.344-34.88-49.728-3.776-5.184-8.768-9.728-13.632-13.952-5.184-4.48-11.712-6.080-17.92-2.752-5.888 3.2-5.824 9.536-5.568 15.424 0.64 13.76 5.44 26.496 10.176 39.232 1.984 5.248 4.16 10.432 6.528 16.448-6.72-6.848-13.696-11.584-22.272-13.44-8.832-1.984-18.496 2.88-19.904 13.76-4.16-5.248-7.808-10.496-12.032-15.168-12.992-14.336-25.984-28.736-39.488-42.624-4.096-4.224-9.728-7.168-15.168-9.728-2.56-1.216-6.272-0.512-9.344 0-1.92 0.32-2.24 2.688-0.256 3.136 13.888 3.264 20.864 15.040 29.44 24.32 13.056 14.080 24.768 29.376 37.248 43.968 7.488 8.64 11.328 18.432 11.712 29.888 0.704 22.144 6.976 43.072 15.872 63.232 12.608 28.608 29.44 54.72 49.28 78.72 6.144 7.36 13.952 13.312 21.056 19.904 0.64 0.576 1.472 0.96 2.176 1.408 10.368 6.272 17.152 2.368 17.792-9.728 0.96-18.304-4.096-34.816-13.568-50.176-17.344-28.032-35.392-55.552-54.912-82.176-9.6-13.056-17.728-27.136-26.56-40.768-2.752-4.224-3.008-8.64-0.832-13.248 1.792-3.84 3.136-4.672 7.36-3.584 7.744 1.984 13.312 7.168 17.536 13.504 8.384 12.544 16.448 25.28 24.32 38.144 10.752 17.6 20.8 35.648 31.744 53.056 11.392 18.112 23.616 35.648 35.2 53.632 11.712 18.24 22.976 36.672 34.496 54.976 7.232 11.392 14.592 22.656 21.952 33.856 2.048 3.136 6.336 3.008 7.488-0.576 1.024-3.136 1.408-7.232 0.256-10.112-4.736-11.904-10.304-23.424-15.36-35.2-7.744-17.984-15.872-35.84-22.784-54.208-8.576-22.656-16.064-45.76-24.064-68.672-1.856-5.312-3.84-10.624-5.568-16-1.152-3.584-3.776-4.416-7.040-4.224-1.216 0.064-2.496 0.384-3.712 0.64-7.808 1.6-7.68 1.6-7.296 9.344 0.064 1.6-0.64 3.264-0.96 4.864-1.792-0.448-3.84-0.448-5.248-1.472-8.064-5.824-13.952-13.696-19.52-21.824-14.848-21.696-27.712-44.416-35.904-69.504-2.56-7.872-3.968-16.064-5.76-24.128-0.256-1.152-0.064-2.496 0-3.712 0.192-2.944 1.28-6.080 4.16-6.528 2.176-0.32 5.12 0.96 6.976 2.496 3.008 2.432 5.632 5.44 7.872 8.576 11.456 16.192 22.528 32.768 34.176 48.832 24.64 33.856 49.344 67.648 74.496 101.12 11.584 15.36 24.448 29.76 39.424 41.984 3.392 2.752 7.296 4.928 11.2 6.912 2.048 0.96 4.48 2.688 6.72-0.448 2.752-3.968 3.2-7.104 1.344-10.048-13.568-20.992-27.072-42.048-40.448-63.232-3.264-5.12-5.696-10.752-8.512-16.192 0.32-0.256 0.704-0.576 1.024-0.832 16.576 12.352 31.232 26.816 45.824 41.856 1.6-1.088 3.328-2.112 4.864-3.328 2.24-1.92 2.624-4.288 0.96-6.72-1.408-2.048-3.328-3.84-4.544-5.952-1.472-2.56-2.688-5.376-3.456-8.192-0.32-1.28 0.832-2.88 1.344-4.352 1.152 0.64 2.816 1.024 3.456 2.048 6.208 9.28 12.288 18.688 18.24 28.16l-12.992-35.52zM156.928 341.44c0.512 0.256 0.768 0.256 0.896 0.448 16.576 25.152 33.28 50.304 49.664 75.584 7.36 11.392 14.592 22.912 20.928 34.88 3.328 6.272 4.8 13.632 6.72 20.608 0.384 1.472-0.384 3.776-1.472 4.992-0.576 0.64-2.944 0.064-4.352-0.448-1.344-0.512-2.752-1.408-3.712-2.496-7.104-7.744-14.784-15.104-20.992-23.552-18.688-25.216-32.96-52.864-42.432-82.816-2.816-8.768-4.992-17.728-5.248-27.2zM299.84 481.6c-25.92-36.736-48.96-75.2-71.36-114.112 4.096 2.688 7.744 5.696 11.776 8.256 4.544 2.88 9.088 1.92 13.632-1.728 12.608 37.376 26.688 73.6 45.952 107.584z" />
<glyph unicode="&#xe620;" glyph-name="cycling" data-tags="cycling" horiz-adv-x="1203" d="M821.312 741.12c-15.104-7.744-28.992-16.832-41.792-26.944-51.008 58.304-92.416 107.2-93.312 108.288-1.024 1.216-2.304 2.048-3.456 2.944l-37.504 45.568c19.52 20.736 48.576 44.736 70.336 45.888 7.424 0.384 13.184-1.984 18.816-7.68 9.152-9.28 13.44-18.624 13.12-28.544-0.576-17.728-15.744-35.072-21.568-40.192l0.064 0.064c-8.96-7.872-9.856-21.44-2.048-30.4s21.44-9.856 30.4-2.048c3.52 3.072 34.752 31.424 36.224 70.784 0.832 21.824-8 42.752-25.472 60.544-14.208 14.464-32.128 21.504-51.84 20.48-54.4-2.944-107.264-67.712-113.088-75.136-6.4-7.936-6.272-19.2 0.192-27.008l35.008-42.56-326.72-167.488-32.256 35.392 68.352 47.552-0.064 0.128c9.024 5.248 12.48 16.576 7.68 25.92-4.736 9.152-15.488 12.992-24.896 9.28l-0.064 0.192-127.36-40.064c-3.648-0.768-7.168-1.856-10.56-3.584-20.288-10.432-28.288-35.264-17.92-55.552s35.328-28.288 55.552-17.856c1.28 0.64 2.368 1.536 3.52 2.24v-0.064l1.28 0.896c0.832 0.64 1.728 1.088 2.56 1.792l6.208 4.288 36.8-40.384-15.808-165.184c-40.768 0.576-82.24-8.384-121.024-28.288-61.44-31.488-106.944-84.992-128.064-150.72-21.184-65.728-15.488-135.744 16-197.184 65.024-126.784 221.056-177.088 347.904-112.064 102.528 52.544 154.88 164.544 136.96 272.576l59.008 15.040c11.776 0.384 23.744 3.2 35.072 9.024l25.408-55.872-32.64-14.4c-7.296-3.2-10.56-11.648-7.36-18.944 3.136-7.232 11.648-10.56 18.944-7.36l74.56 32.832c7.296 3.2 10.56 11.648 7.36 18.88-3.2 7.296-11.712 10.56-18.944 7.36l-28.8-12.672-26.24 57.792c29.824 22.464 40.768 62.336 24 94.912-5.952 11.648-14.72 20.928-25.152 27.584l98.88 328.512c9.6-11.072 19.904-22.912 30.592-35.136-70.080-77.44-89.216-193.152-38.848-291.392 65.024-126.784 221.056-177.088 347.904-112.064 126.784 65.024 177.088 221.056 112.064 347.904-65.088 126.848-221.12 177.088-347.968 112.128zM316.672 574.912l185.984-203.904-36.864-22.656c-39.872 53.696-98.048 88.512-161.28 99.968l12.16 126.592zM487.68 313.856c-4.096 7.872-8.64 15.488-13.44 22.784l27.072 16.64c-4.736-11.456-6.72-23.808-5.504-36.096l-8.128-3.328zM416.832 318.208l-132.544-81.472 14.784 154.368c45.76-9.472 87.872-34.688 117.76-72.896zM328.704 247.168l96.576 59.328c3.2-4.8 6.208-9.92 9.088-15.040l-105.664-44.288zM451.136 251.776c1.472-4.928 2.624-9.92 3.712-14.912l-100.096-25.536 96.384 40.448zM539.648 394.368l-51.2 56.192 27.456 12.096 29.76-65.536c-2.048-0.896-4.032-1.792-6.016-2.752zM449.856 132.8c-16.448-51.072-51.84-92.736-99.648-117.248-98.624-50.56-219.968-11.456-270.528 87.168-24.512 47.808-28.928 102.272-12.416 153.344 16.448 51.136 51.84 92.736 99.584 117.248 28.608 14.656 59.2 21.568 89.344 21.888l-19.072-198.72c-0.704-7.552 2.56-14.912 8.704-19.392s14.144-5.504 21.12-2.56l0.768 0.32 0.128-0.448 189.632 48.256c4.224-29.696 1.984-60.352-7.616-89.856zM504.128 274.048l8.576 3.584c7.232-8.448 16.32-14.912 26.368-19.264l-28.672-7.296c-1.728 7.68-3.776 15.296-6.272 22.976zM681.92 750.912l-104.704-347.584c-5.824 0-11.84-0.64-17.728-1.984l-30.464 67.008 30.4 13.376c7.296 3.2 10.56 11.648 7.36 18.944s-11.712 10.56-18.944 7.424l-74.56-32.896c-1.728-0.768-3.2-1.856-4.48-3.136l-130.048 142.656 325.632 166.976c5.312-6.272 12.416-14.592 20.8-24.32-1.408-1.984-2.56-4.096-3.264-6.464zM1130.56 449.472c-16.448-51.072-51.84-92.736-99.648-117.248-98.624-50.56-220.032-11.456-270.592 87.168-38.144 74.432-25.216 161.792 25.792 221.952 53.696-60.48 109.76-121.408 139.072-146.56 9.024-7.744 22.592-6.656 30.336 2.368s6.656 22.592-2.304 30.336c-27.712 23.808-82.752 83.776-135.68 143.488 9.28 7.104 19.2 13.568 29.952 19.072 98.624 50.56 220.032 11.456 270.592-87.168 24.512-47.872 28.928-102.272 12.48-153.408z" />
<glyph unicode="&#xe621;" glyph-name="darts" data-tags="darts" d="M380.16 708.672l-63.552 125.696c-41.024-20.672-77.952-47.68-109.824-79.36l99.328-99.904c21.504 21.44 46.4 39.552 74.048 53.568zM252.16 581.312l-125.312 64.384c-20.544-40-35.008-83.392-42.368-128.704l139.136-22.464c4.928 30.592 14.656 59.84 28.544 86.784zM643.904 187.264l63.616-125.76c41.024 20.672 77.888 47.616 109.76 79.36l-99.264 99.904c-21.504-21.376-46.528-39.616-74.112-53.504zM800.512 401.408c-4.992-30.592-14.784-59.84-28.608-86.848l125.376-64.384c20.608 40 35.008 83.392 42.368 128.704l-139.136 22.528zM252.16 581.312l21.76-11.136c12.864 24.96 29.568 47.808 49.408 67.648l-17.216 17.28c-21.696-21.632-39.872-46.528-53.952-73.792zM247.552 406.848c-4.48 28.544-4.224 56.704 0.256 83.776l216.064-34.88c0.768 5.12 2.496 9.984 4.8 14.464l-194.752 99.968c-12.736-24.704-21.696-51.52-26.176-79.552l-24.128 3.904c-4.8-29.504-4.992-60.224-0.256-91.392 0 0 0 0 0.064 0l24.128 3.712zM391.232 686.912c24.448 12.288 51.2 21.056 79.744 25.536l-3.776 24.128c-31.168-4.8-60.352-14.4-87.040-27.904l11.072-21.76zM750.144 325.696c-12.8-24.96-29.504-47.744-49.408-67.584l17.28-17.344c21.76 21.696 39.872 46.592 53.888 73.792l-21.76 11.136zM776.384 405.312l24.128-3.904c4.736 29.44 4.992 60.16 0.128 91.328l-24.128-3.776c4.48-28.48 4.224-56.64-0.128-83.648zM378.624 188.096c27.008-13.952 56.192-23.68 86.848-28.608l3.84 24.128c-27.968 4.544-54.784 13.504-79.552 26.176l-11.136-21.696zM389.76 209.856l100.032 194.752c-4.544 2.24-8.704 5.312-12.416 8.96l-155.2-154.24c-19.648 19.648-36.288 42.496-49.088 67.776l-21.76-11.072c13.952-27.648 32.128-52.544 53.504-74.048l17.344 17.28c19.776-19.968 42.624-36.608 67.584-49.408zM468.48 425.92c-2.24 4.416-3.904 9.28-4.672 14.528l-216.256-33.6c4.416-28.544 13.248-55.296 25.536-79.744l195.392 98.816zM477.632 482.56c3.584 3.584 7.744 6.592 12.416 8.96l-98.816 195.392c-25.344-12.8-48.192-29.44-67.904-49.088l154.304-155.264zM470.976 712.448l33.536-216.256c5.184 0.768 10.368 0.768 15.36-0.064l34.88 216.128c28.032-4.544 54.848-13.44 79.488-26.176l11.264 21.696c-27.008 13.952-56.256 23.68-86.912 28.608l-3.904-24.128c-27.072 4.352-55.168 4.672-83.712 0.192zM555.392 425.664l194.688-99.968c12.736 24.768 21.76 51.648 26.24 79.616l-216.064 34.88c-0.832-5.12-2.496-9.984-4.864-14.528zM546.688 482.304l155.2 154.368c-19.776 19.904-42.624 36.608-67.648 49.408l-99.904-194.688c4.544-2.368 8.704-5.44 12.352-9.088zM560.256 455.488l216.192 33.536c-4.352 28.544-13.12 55.296-25.472 79.744l-195.328-98.816c2.24-4.416 3.904-9.344 4.608-14.464zM504.256 399.68l-34.944-216.064c27.072-4.288 55.232-4.608 83.776-0.192l-33.536 216.192c-5.184-0.768-10.304-0.704-15.296 0.064zM534.080 404.352l98.752-195.392c-24.512-12.352-51.2-21.184-79.744-25.536l3.776-24.128c-31.232-4.8-61.888-4.48-91.328 0.192l-22.592-139.136c43.776-7.040 89.344-7.488 135.552-0.32l-21.568 139.2c31.168 4.864 60.352 14.528 86.976 27.968l-11.008 21.824c25.28 12.864 48.064 29.44 67.84 49.088l-154.304 155.264c-3.584-3.648-7.744-6.72-12.352-9.024zM531.776 448c0-10.887-8.825-19.712-19.712-19.712s-19.712 8.825-19.712 19.712c0 10.887 8.825 19.712 19.712 19.712s19.712-8.825 19.712-19.712zM1017.92 526.592c-8.448 54.464-25.28 105.664-48.896 152.448-24.512 48.448-56.384 92.16-93.888 129.856-37.888 38.016-81.472 69.952-129.28 94.528-47.36 24.32-98.624 41.408-152.256 50.112-51.648 8.256-105.6 8.768-160.128 0.32-54.592-8.512-105.728-25.344-152.512-48.96-48.512-24.512-92.16-56.32-129.856-93.888-38.080-37.888-70.016-81.536-94.528-129.28-24.32-47.232-41.408-98.56-50.048-152.128-8.384-51.776-8.896-105.6-0.384-160.192 8.448-54.592 25.344-105.728 48.96-152.576 24.512-48.384 56.32-92.032 93.888-129.728 37.888-38.080 81.536-70.016 129.28-94.592 47.296-24.32 98.56-41.408 152.192-50.048 51.776-8.32 105.6-8.832 160.192-0.384 54.528 8.512 105.728 25.344 152.512 48.96 48.512 24.512 92.096 56.32 129.856 93.888 38.016 37.888 69.888 81.472 94.528 129.344 24.256 47.296 41.344 98.56 49.984 152.192 8.384 51.648 8.896 105.536 0.384 160.128zM55.424 377.024l28.736 4.48c7.168-46.144 21.44-89.344 41.408-128.96l-25.984-13.12c-21.376 42.176-36.48 88.384-44.16 137.6zM939.904 514.432c-7.168 46.208-21.376 89.408-41.408 128.96l-125.696-63.552c-14.016 27.648-32.128 52.544-53.504 74.112l-17.408-17.216c19.648-19.712 36.224-42.56 49.152-67.904l21.696 11.008c13.504-26.688 23.104-55.936 27.904-87.040l139.2 21.632c7.232-46.144 6.72-91.648-0.256-135.424l28.8-4.672c-7.872-48.448-23.232-94.656-45.248-137.344l-25.856 13.248c-20.736-40.384-47.744-77.312-80-109.312l20.608-20.672c-34.112-33.856-73.472-62.592-117.248-84.672l-13.12 25.984c-39.488-20.032-82.88-34.24-129.024-41.408l4.48-28.672c-49.344-7.68-97.92-7.232-144.64 0.32l4.608 28.672c-45.312 7.296-88.64 21.824-128.64 42.304l64.32 125.312c-27.2 14.016-52.096 32.256-73.792 53.952l-99.904-99.328c32-32.192 68.864-59.136 109.312-79.872l-13.312-25.92c-43.072 22.208-82.496 51.008-116.608 85.376l20.608 20.48c-31.744 31.872-58.688 68.8-79.36 109.76l125.696 63.552c-13.44 26.688-23.040 55.872-27.904 87.040l-139.136-21.632c-7.168 46.144-6.784 91.712 0.256 135.488l-28.736 4.608c7.808 48.384 23.232 94.656 45.248 137.344l25.792-13.312c20.864 40.384 47.808 77.312 80 109.376l-20.48 20.608c33.984 33.856 73.408 62.656 117.12 84.736l13.184-25.984c39.488 19.968 82.752 34.24 128.96 41.344l21.632-139.136c31.168 4.864 61.888 4.544 91.392-0.192l22.528 139.136c-43.776 6.976-89.344 7.424-135.488 0.256l-4.48 28.736c49.344 7.744 97.92 7.168 144.64-0.32l-4.672-28.672c45.248-7.296 88.64-21.824 128.64-42.368l-64.256-125.248c27.264-14.080 52.096-32.32 73.728-54.016l99.904 99.328c-32 32.192-68.992 59.2-109.376 80l13.376 25.856c43.008-22.208 82.496-51.008 116.608-85.376l-20.608-20.48c31.744-31.872 58.624-68.8 79.36-109.76l25.984 13.12c21.376-42.24 36.48-88.384 44.096-137.664l-28.672-4.48z" />
<glyph unicode="&#xe622;" glyph-name="deposit" data-tags="deposit" horiz-adv-x="1408" d="M1344 960h-1280c-35.328 0-64-28.672-64-64v-896c0-35.328 28.672-64 64-64h1280c35.328 0 64 28.672 64 64v896c0 35.328-28.672 64-64 64zM512 192h-384v128h384v-128zM832 192h-192v128h192v-128zM1280 576h-1152v256h1152v-256z" />
<glyph unicode="&#xe623;" glyph-name="diving" data-tags="diving" horiz-adv-x="915" d="M881.856 116.416c-6.592 8.768-6.912 47.616-31.36 63.936-16.768 11.2-42.56 11.2-55.616 21.696-0.256 1.344-0.384 2.176-0.384 2.176s-3.712 9.28-8.768 15.296c4.608 5.76 6.656 11.392 7.168 16.32 6.336 8.704 5.376 18.24 5.376 18.24 0-6.848-2.112-12.032-5.248-15.936 0.064 3.008-0.32 5.696-0.896 8.064 0.704-0.832 1.344-1.664 1.984-2.624 0 0-0.704 1.216-2.112 3.008-0.128 0.448-0.256 0.96-0.448 1.344 2.752 5.248 3.136 9.984 3.2 10.56 1.6-0.832 3.264-1.856 4.928-3.008 0 0-2.368 2.048-6.464 4.16 1.792 4.48 1.92 7.936 1.92 7.936-0.448-2.944-1.216-5.568-2.24-7.808-0.96 0.448-1.984 0.96-3.072 1.408 3.392 7.36 3.84 14.4 3.392 19.968 1.92 1.408 3.264 2.24 3.264 2.24 31.808 8.128 66.624 70.848 66.624 70.848 43.136 61.632 45.44 165.376 45.44 165.376 6.016 21.248 1.408 32.96 1.408 32.96 11.008 28.8-5.376 138.432-25.536 172.352-20.096 33.92-47.808 113.6-55.36 134.336s-41.472 49.216-41.472 49.216c-122.624 98.752-221.12 25.152-221.12 25.152-35.712-19.904-64.64-81.024-79.424-108.032s-62.080-106.112-73.408-123.52c-11.264-17.408-67.84-113.088-67.84-113.088s-36.8-22.336-58.176-40.832c-21.44-18.496-48.64-33.792-48.64-33.792-2.176 0.576-12.16-2.24-15.36-2.496-3.136-0.32-18.816-5.696-29.504-9.152s-13.056-8-13.568-13.696c-0.512-5.632-4.096-8.32-4.096-8.32-8.192-5.568-5.696-9.088-5.568-10.688s5.12-5.184-1.28-8.96c-6.464-3.776-2.88-12.032-1.92-14.848 0.96-2.752 1.792-4.096-1.856-10.88-3.712-6.72 4.544-15.616 7.68-18.944 3.136-3.264 6.080-4.48 5.44-9.152s4.48-6.4 4.48-6.4c-14.848-17.728-25.344-45.056-56-109.888-30.72-64.832-59.456-93.248-59.456-93.248-32.96-2.56-37.44-19.2-37.44-19.2-40.384-9.344-30.528-42.624-26.496-69.888 4.032-27.328 7.488-79.104 2.944-94.336s4.8-24.064 6.72-27.968c1.984-3.968 6.016-7.296 7.104-11.84s4.736-7.232 9.856-14.848c5.12-7.616 11.2-1.856 11.2-1.856-0.704-2.368 1.152-4.864 4.864-8.32s8.576-3.904 10.048-0.512c1.472 3.328 1.408 8.32 1.408 8.32 3.328-1.472 2.88-6.336 2.88-6.336s-4.864-5.44 1.856-11.072c6.72-5.632 10.432-3.2 10.432-3.2 4.48 4.16 2.112 8.768 2.752 11.136 0.704 2.368-1.088 6.144-1.088 6.144 1.408 0.128 5.184-0.064 4.736-5.312-0.448-5.184 5.44-8.832 5.44-8.832 14.208-5.376 12.608 7.168 12.608 7.168 1.792-0.192 4.032 1.216 5.952 3.52s0.256 6.976-1.664 8.576c-1.92 1.6-2.88 4.416-2.88 4.416s2.816-1.728 5.888 1.92c3.072 3.648 0.064 9.088 0.064 9.088 3.008 2.048-0.512 6.016-1.344 7.36s-1.088 6.144-0.64 9.024c0.448 2.88-4.224 7.488-4.224 7.488 2.24 7.296-6.528 12.992-6.528 12.992 0.256 5.376-7.744 11.264-7.744 11.264 0.704 3.84 7.36 16.96 12.672 23.36 5.312 6.336 19.328 41.856 24.256 50.048s11.008 24.256 20.16 41.664c9.216 17.408 49.152 65.664 49.152 65.664s142.016 161.344 149.12 169.856c7.104 8.448 16.576 14.336 16.576 14.336 12.16 3.584 26.88 14.848 35.392 23.488 8.64 8.576 17.92 12.608 17.92 12.608 24.256 0.704 61.696 45.44 61.696 45.44 4.992-4.16 31.232-22.272 38.016-25.92 6.72-3.712 50.56-27.392 67.648-63.36s67.776-84.352 67.776-84.352c-2.752-0.96-17.792-0.832-34.112 2.368s-22.72-13.76-20.416-19.648c2.304-5.888-1.024-12.928-6.656-17.344-5.696-4.416-1.728-9.088-0.448-11.456s-1.024-8.32-4.48-10.048c-3.392-1.728-6.848-7.36-4.544-13.248s2.304-13.76 2.304-13.76c-13.824-5.504-15.552-13.824-6.4-24.832 9.152-10.944 13.952-28.8 13.952-28.8 1.152-4.864-2.176-7.296-2.176-7.296-1.536-2.624-1.088-8.32 0.32-12.096s1.664-14.528 1.408-28.096c-0.064-2.432 0.384-5.376 1.28-8.64-6.912-3.776-10.24-9.408-10.24-9.408 3.136 4.288 6.72 6.976 10.496 8.576 0.256-0.832 0.512-1.664 0.768-2.56-0.64-1.152-1.152-2.24-1.6-3.328-0.064 1.088-0.064 2.176-0.064 3.328 0 0-0.192-1.344-0.064-3.648-0.192-0.448-0.32-0.896-0.512-1.344-5.312-2.624-8.384-6.144-8.768-6.592-0.832 1.664-1.536 3.392-2.176 5.312 0 0 0.704-3.072 2.752-7.168-4.096-2.56-6.272-5.248-6.272-5.248 2.112 2.112 4.288 3.776 6.464 4.928 0.448-0.96 1.024-1.92 1.664-2.944-15.936-8.832-19.264-25.088-19.264-25.088 3.904 12.8 12.096 19.52 20.672 22.912 0.256-0.384 0.576-0.768 0.896-1.216-1.728-4.544-1.792-8.128-1.792-8.128 0.32 2.944 1.024 5.504 2.048 7.808 3.84-4.928 9.536-9.984 17.92-12.928 3.392-8.704 10.816-19.008 26.944-24.32 18.944-12.224 46.592-11.584 57.472-16.192 12.608-5.312 19.776-1.472 37.376-7.040 3.52-1.152 7.808-0.256 12.544 1.92 15.36-1.6 29.312 4.096 34.816 11.904 7.936 11.328 17.92 16.832 33.472 47.488 4.736 9.28 7.36 19.136 8.704 28.544 3.2 10.368 4.736 21.248 3.328 32.192-0.768 5.952-1.408 11.072-1.92 15.424 5.824-17.984 9.792-38.336 32.576-50.88 33.216-18.304 54.72 1.984 54.72 1.984s-9.6 0.768-16.192 9.6zM567.232 534.592c-5.696 8.064-18.944 20.48-18.944 20.48 46.72 36.928 96.384 109.504 96.384 109.504 25.216-10.624 17.728-67.712 19.648-81.472 1.088-7.68-17.728-25.856-17.728-25.856-35.584-37.056-25.216-73.984-25.216-73.984s-48.384 43.2-54.144 51.328zM790.4 232.896c-0.064-0.192-0.128-0.384-0.192-0.576-0.064 0.064-0.064 0.128-0.128 0.192 0.064 0.128 0.192 0.256 0.32 0.384zM790.016 232.512c0.064-0.064 0.128-0.128 0.128-0.192-1.728-4.288-4.288-7.872-6.592-10.56-0.704 0.64-1.344 1.152-2.048 1.6-0.128 0.832-0.256 1.856-0.384 3.008 3.648 1.728 6.592 3.84 8.896 6.144zM591.744 83.2c0.32-2.752 1.024-6.080 2.368-9.664-2.496 2.56-4.736 5.568-6.4 9.088 1.344 0.32 2.688 0.448 4.032 0.576zM782.912 246.72c0.384 0.256 0.768 0.576 1.152 0.832-0.384-0.96-0.832-1.856-1.344-2.752-0.384 0.32-0.768 0.704-1.216 1.024 0.512 0.32 0.96 0.576 1.408 0.896 0.064-0.192 0.192-0.32 0.256-0.448 0 0-0.064 0.192-0.256 0.448zM782.528 244.416c-0.448-0.832-0.96-1.6-1.472-2.368-0.128 0.128-0.32 0.256-0.448 0.32 0 0.96 0 1.92 0 2.88 0.128 0.064 0.32 0.192 0.448 0.256 0.448-0.32 0.96-0.704 1.472-1.088zM784.32 242.816c0.32-0.32 0.64-0.64 0.96-0.96-0.704-0.576-1.472-1.024-2.176-1.472 0 0 0 0-0.064 0 0.512 0.832 0.896 1.664 1.28 2.432zM780.608 241.6c0.064 0 0.064-0.064 0.128-0.064-0.064-0.064-0.064-0.064-0.064-0.128-0.064 0.064-0.064 0.128-0.064 0.192zM781.76 248.384c-0.128 0.192-0.32 0.384-0.448 0.576 1.28 1.28 2.432 2.624 3.456 3.904 0.32-0.192 0.576-0.384 0.832-0.576-0.128-0.64-0.32-1.28-0.512-1.856-1.088-0.768-2.176-1.408-3.328-2.048zM785.088 253.376c0.256 0.384 0.576 0.768 0.896 1.152-0.064-0.576-0.128-1.152-0.256-1.664-0.256 0.192-0.448 0.384-0.64 0.512zM781.184 248.896c0.128-0.192 0.32-0.384 0.448-0.512-0.32-0.192-0.704-0.32-1.024-0.512 0 0.128 0 0.32 0 0.448 0.128 0.128 0.384 0.384 0.576 0.576zM780.48 253.632c0 0.576 0 1.216-0.064 1.792 0.384-0.192 0.832-0.384 1.216-0.576-0.384-0.448-0.768-0.832-1.152-1.216zM585.6 86.592c0.064-0.256 0.128-0.512 0.192-0.768-0.448-0.128-0.96-0.256-1.408-0.448 0.384 0.448 0.768 0.832 1.216 1.216zM586.048 87.040c0.512 0.448 0.96 0.832 1.472 1.216 0.96 0 1.92-0.064 2.816-0.192 0.128-0.32 0.32-0.64 0.448-0.96-1.536-0.256-3.072-0.64-4.48-1.024-0.064 0.256-0.192 0.576-0.256 0.96zM606.4 60.672c0.064-0.128 0.128-0.192 0.256-0.32-0.32 0.256-0.64 0.512-0.96 0.704 0.192-0.128 0.448-0.256 0.704-0.384zM791.424 236.288c-0.768-0.832-1.6-1.536-2.496-2.24-0.96 1.344-2.496 3.136-4.48 5.12 0.64 0.576 1.28 1.088 1.856 1.664 1.152-1.28 2.304-2.688 3.392-4.224 0 0-1.088 1.856-3.264 4.416 1.984 1.984 3.52 4.16 4.672 6.208 0.064-0.128 0.192-0.256 0.32-0.32 0.896-3.776 0.768-7.36 0-10.624zM791.36 247.296c-0.064 0.064-0.064 0.064-0.064 0.128s0 0.064 0.064 0.064c0-0.064 0-0.128 0-0.192zM784.128 238.912c1.6-1.408 3.2-3.072 4.672-4.928-2.56-2.048-5.312-3.52-7.936-4.608-0.128 2.176-0.192 4.672-0.256 7.232 1.344 0.704 2.496 1.472 3.52 2.304zM785.536 242.048c-0.32 0.384-0.704 0.704-1.088 1.088 1.024 2.24 1.664 4.416 2.048 6.528 0.384 0.384 0.704 0.704 1.024 1.088 1.088-0.96 2.112-1.984 3.2-3.072-1.472-2.24-3.264-4.096-5.184-5.632zM790.848 247.872c-0.832 0.96-1.856 2.048-3.072 3.136 0.512 0.576 1.024 1.216 1.472 1.792 0.768-1.536 1.408-3.072 1.792-4.544 0-0.128-0.064-0.256-0.192-0.384zM794.688 258.432c-0.576-3.904-1.792-7.168-3.392-9.92-0.64 1.792-1.344 3.264-1.92 4.352 1.664 2.176 2.816 4.352 3.648 6.4 0.576-0.192 1.152-0.512 1.664-0.832zM792.704 259.456c-1.024-2.176-2.368-4.032-3.84-5.632-0.576 0.96-0.96 1.408-0.96 1.408 0.32-0.512 0.64-1.024 0.896-1.536-0.64-0.704-1.28-1.28-1.92-1.856 0 0-0.064 0.064-0.064 0.064 0.128 1.472 0.192 2.816 0.128 4.096 1.024 1.536 1.856 3.136 2.56 4.672 1.088-0.32 2.112-0.704 3.2-1.216zM782.272 255.488c-0.576 0.384-1.216 0.768-1.856 1.152-0.064 1.856-0.128 3.584-0.256 4.992 0 0.256 0 0.512 0 0.832 1.856-0.064 3.712-0.256 5.568-0.64 0.128-0.576 0.192-1.152 0.256-1.728-1.216-1.728-2.432-3.264-3.712-4.608zM786.368 260.608c-0.064 0.384-0.192 0.704-0.256 1.088 0.256-0.064 0.576-0.128 0.832-0.192-0.192-0.32-0.384-0.64-0.576-0.896zM787.264 262.016c-0.448 0.128-0.96 0.32-1.408 0.448-1.344 4.672-3.392 7.616-3.392 7.616 1.472-2.56 2.432-5.056 3.008-7.488-1.664 0.448-3.456 0.832-5.376 1.088 0.704 7.104 7.872 13.568 12.48 17.024 0.192-7.232-2.048-13.504-5.312-18.688zM586.304 98.24c0.256-0.896 0.64-1.792 0.96-2.688-0.96-0.32-1.856-0.64-2.688-1.088 0 0.128 0 0.32-0.064 0.448 0.512 1.216 1.152 2.304 1.792 3.328zM584.384 93.76c0.128-1.28 0.256-2.752 0.576-4.352-0.768-0.128-1.536-0.32-2.24-0.576 0.32 1.728 0.704 3.264 1.28 4.736 0.128 0.064 0.256 0.128 0.384 0.192zM584.384 94.336c0 0-0.064 0-0.064-0.064 0 0.064 0.064 0.128 0.064 0.192-0.064 0 0-0.064 0-0.128zM575.872 85.824c-0.32 0.512-0.576 1.088-0.832 1.664 2.752 2.816 5.696 4.736 8.576 5.952-0.512-1.792-0.832-3.392-1.024-4.672-2.624-0.768-4.864-1.856-6.72-2.944zM577.856 82.624c-0.64 0.896-1.216 1.856-1.792 2.88 2.112 1.152 4.288 1.856 6.464 2.304-0.128-1.152-0.128-1.792-0.128-1.792 0.064 0.576 0.128 1.152 0.192 1.728 0.896 0.192 1.792 0.256 2.624 0.32 0 0 0 0 0-0.064-0.96-1.088-1.792-2.176-2.56-3.264-1.664-0.576-3.328-1.344-4.8-2.112zM586.816 89.728c-0.512-0.064-0.96-0.128-1.472-0.256-0.32 1.408-0.576 2.816-0.768 4.352 0.96 0.32 1.984 0.64 2.944 0.832 0.384-1.024 0.832-2.112 1.28-3.2-0.64-0.576-1.344-1.152-1.984-1.728zM579.52 80.448c0.32 0.128 0.64 0.256 1.024 0.384-0.128-0.32-0.32-0.704-0.448-1.024-0.256 0.192-0.384 0.448-0.576 0.64zM580.352 79.488c0.256 0.512 0.512 1.088 0.832 1.6 1.92 0.64 3.84 1.088 5.696 1.472 1.472-3.968 3.776-8.256 7.296-12.288-4.992 1.792-9.792 4.736-13.824 9.216zM596.032 71.744c-1.92 3.264-3.328 7.104-4.032 11.52 0.192 0 0.384 0 0.576 0.064 0.768-1.6 1.6-3.2 2.496-4.8 0.128-1.6 0.384-3.968 0.96-6.784 0.064 0 0 0 0 0zM596.544 71.296c-0.64 2.176-1.088 4.48-1.344 6.976 1.792-3.328 3.776-6.656 5.952-9.984-0.32 0.064-0.576 0.128-0.896 0.128-1.216 0.896-2.496 1.856-3.712 2.88zM600.832 62.080c3.008-3.584 6.976-6.976 12.224-9.792 0.768-0.896 1.536-1.792 2.368-2.688-5.44 2.752-10.752 6.72-14.592 12.48z" />
<glyph unicode="&#xe624;" glyph-name="double-arrow-left" data-tags="double-arrow-left" horiz-adv-x="704" d="M434.24 758.336c0-6.464-2.496-12.16-7.424-17.152l-293.312-293.248 293.312-293.312c4.928-4.928 7.424-10.688 7.424-17.152s-2.496-12.16-7.424-17.152l-37.312-37.312c-4.928-4.928-10.688-7.424-17.152-7.424s-12.16 2.496-17.152 7.424l-347.776 347.84c-4.928 4.992-7.424 10.688-7.424 17.152s2.496 12.16 7.424 17.152l347.84 347.84c4.928 4.928 10.624 7.424 17.088 7.424s12.16-2.496 17.152-7.424l37.312-37.312c4.928-4.928 7.424-10.688 7.424-17.152v-0.192zM704 758.336c0-6.464-2.496-12.16-7.424-17.152l-293.312-293.248 293.312-293.312c4.928-4.992 7.424-10.688 7.424-17.152s-2.496-12.16-7.424-17.152l-37.312-37.312c-4.928-4.928-10.688-7.424-17.152-7.424s-12.16 2.496-17.152 7.424l-347.776 347.84c-4.928 4.992-7.424 10.688-7.424 17.152s2.496 12.16 7.424 17.152l347.84 347.84c4.928 4.928 10.688 7.424 17.152 7.424s12.16-2.496 17.152-7.424l37.312-37.312c4.864-4.992 7.36-10.688 7.36-17.152v-0.192z" />
<glyph unicode="&#xe625;" glyph-name="double-arrow-right" data-tags="double-arrow-right" horiz-adv-x="704" d="M269.76 758.528c0 6.464 2.496 12.16 7.424 17.152l37.312 37.312c4.928 4.928 10.624 7.424 17.152 7.424 6.464 0 12.16-2.496 17.152-7.424l347.84-347.84c4.864-4.992 7.36-10.688 7.36-17.152s-2.496-12.16-7.424-17.152l-347.84-347.84c-4.928-4.928-10.688-7.424-17.152-7.424s-12.16 2.496-17.152 7.424l-37.248 37.312c-4.928 4.928-7.424 10.688-7.424 17.152s2.496 12.16 7.424 17.152l293.312 293.312-293.312 293.312c-4.928 4.928-7.424 10.624-7.424 17.088v0.192zM0 758.528c0 6.464 2.496 12.16 7.424 17.152l37.312 37.312c4.928 4.928 10.624 7.424 17.088 7.424s12.16-2.496 17.152-7.424l347.84-347.84c4.928-4.992 7.424-10.688 7.424-17.152s-2.496-12.16-7.424-17.152l-347.84-347.84c-4.928-4.928-10.688-7.424-17.152-7.424s-12.16 2.496-17.152 7.424l-37.248 37.312c-4.928 4.992-7.424 10.688-7.424 17.152s2.496 12.16 7.424 17.152l293.312 293.312-293.312 293.312c-4.928 4.928-7.424 10.624-7.424 17.088v0.192z" />
<glyph unicode="&#xe626;" glyph-name="edit" data-tags="edit" d="M0-64v281.216l562.368 562.368 281.216-281.216-562.368-562.368c0 0-281.216 0-281.216 0zM86.528 108.992h86.528v-86.528h72.32l61.504 61.504-158.848 158.848-61.504-61.504v-72.32zM201.408 282.048c0-9.92 4.928-14.848 14.848-14.848 4.544 0 8.384 1.6 11.52 4.736l366.336 366.336c3.136 3.136 4.736 6.976 4.736 11.52 0 9.92-4.928 14.848-14.848 14.848-4.544 0-8.384-1.6-11.52-4.736l-366.336-366.336c-3.136-3.136-4.736-6.976-4.736-11.52zM605.632 822.784l112.192 111.488c16.192 17.152 36.48 25.728 60.8 25.728 23.872 0 44.352-8.576 61.504-25.728l158.848-158.208c16.704-17.536 25.024-38.016 25.024-61.44 0-23.872-8.32-44.16-25.024-60.8l-112.192-112.192-281.152 281.152z" />
<glyph unicode="&#xe627;" glyph-name="equestrian" data-tags="equestrian" horiz-adv-x="915" d="M874.752 723.136c-2.624 0.64-5.056 0.96-7.552 1.408l-4.608 12.992 48.832 44.416-57.088-11.392c0 0.128 0.064 0.256 0.064 0.32 0 6.528-5.312 11.84-11.84 11.84-5.568 0-9.984-3.904-11.2-9.152-1.728 0.704-3.328 1.472-5.248 2.112 0.064 16.448-5.056 32.704-5.056 32.704-4.864-3.008-9.024-7.36-12.736-12.544-5.888-0.64-10.624-5.44-10.624-11.584 0-1.216 0.32-2.304 0.704-3.392-6.080 0.32-12.672 0.192-19.648-0.704 0.448 1.28 0.832 2.624 0.832 4.096 0 6.528-5.312 11.776-11.776 11.776s-11.776-5.248-11.776-11.776c0-3.136 1.28-5.952 3.264-8.064-0.064 0-0.128 0-0.192-0.064-8.96-2.56-17.92-6.208-26.816-10.496 0.576 1.408 0.96 3.008 0.96 4.608 0 6.528-5.248 11.84-11.776 11.84s-11.776-5.312-11.776-11.84c0-5.376 3.712-9.728 8.64-11.136-7.872-3.776-15.296-8-22.272-12.672 0 0.192 0.128 0.384 0.128 0.64 0 6.528-5.312 11.776-11.84 11.776-6.464 0-11.776-5.312-11.776-11.776 0-5.504 3.84-9.92 8.96-11.2-5.504-4.416-10.688-8.96-15.616-13.76-0.32 6.272-5.376 11.264-11.712 11.264-6.528 0-11.776-5.312-11.776-11.84 0-6.144 4.736-11.008 10.688-11.584-4.544-4.032-8.768-8-12.672-11.712-2.24 3.008-5.44 4.928-9.28 4.928-2.368 0-4.48-0.896-6.272-2.112l-19.008 22.592-34.816 81.152-38.592 24.96-0.384 4.8c8.192 15.616 11.52 41.536 12.736 56.32 10.752-0.896 20.864-0.896 29.376 0.768l-0.32 5.12-26.112 8.256 5.12 38.528-72.64 16.448-6.976-41.344-25.664 5.056-1.28-8.384c0 0 11.648-4.416 28.416-9.472-9.28-23.36-7.744-42.496-0.96-56.576l-3.968-20.032-54.080-36.032c0 0 51.008-125.184 32.448-166.912-5.12-11.456-9.472-25.216-13.184-39.104l-9.984-0.32c-1.792-0.832-3.264-1.856-4.992-2.688-30.208 13.248-56.384 36.352-117.312 24.704-19.072-3.648-35.456-12.8-49.6-24.832-21.952 5.888-76.224 14.336-98.176-37.76-27.84-66.048-112.96-300.8-154.944-229.824 0 0 8.896-37.952 61.056-27.52 37.44 7.488 94.4 59.712 121.088 109.184-2.112-44.992-6.016-102.144-15.040-121.344-11.968-25.408-23.872-55.936-27.008-86.144l-2.944 0.192-6.016-102.464c-1.088-8.256-2.048-15.36-2.816-20.416l-5.76-14.4-30.272-39.296 24.384-48.704 48.704 59.136-6.976 48.704 27.84 114.752c0 0 31.296 118.208 60.864 133.888s64.32 53.888 64.32 53.888c16.896-19.712 36.288-34.112 56.576-44.928-2.56-19.392-11.2-76.096-27.008-89.024-19.136-15.616-31.296-38.272-31.296-38.272l40.256-51.904 35.264-56.128 2.304-32.448 1.664-0.704 0.448-15.36-26.048-31.168 22.592-45.184 29.568 22.592 9.984 53.888 4.672-1.984 2.752 41.984-59.136 102.592c-1.728 17.408 3.456 22.592 43.456 41.728 23.872 11.392 41.472 46.272 51.84 72.64 60.352-3.712 109.568 10.432 109.568 10.432l19.456-34.368 24.384-16.448v-23.552l-36.544-130.432-33.024-126.912 29.504-46.976 45.184 3.456-25.6 37.952 0.96 0.128-11.84 15.808 46.272 124.032c-1.6-0.512-3.2-0.576-4.8-0.832l15.872 47.168 26.432 63.808 83.136-65.536 5.056-15.104-0.192-0.128 40.384-120.384-13.888-36.48 41.728-36.48 17.408 46.976-6.656 18.624 4.48-0.896-52.16 146.048-2.688-1.536-14.272 41.088-70.592 100.352 0.704 1.664c4.224 6.208 23.808 35.392 37.696 60.096 15.616 27.84 9.6 88.32 2.624 117.824-5.248 22.464 10.176 70.784 17.92 92.8l0.32-0.128c-0.896-2.112-1.408-4.352-1.408-6.784 0-8.576 6.336-15.424 14.528-16.768-0.128-2.176-0.064-4.224-0.32-6.656-3.456-36.48 26.752-58.688 50.368-52.8 32 8 26.944 56.384 26.944 56.384s0.64 10.752 2.56 25.856c0.512-0.128 1.024-0.192 1.728 0 6.528 1.6 3.008 8.704 0.128 13.12 1.728 11.136 4.032 23.424 7.168 35.2 5.376 20.16 15.616 54.464 15.616 54.464l-10.304 29.248c0.96-0.704 1.6-1.216 1.6-1.216 21.44 14.4 0 16.768 0 16.768zM595.136 660.48l-2.88 0.128-0.32 2.752 3.2-2.88zM769.92 587.84c0.192-0.448 0.384-1.024 0.512-1.472l-0.96 0.32c0.256 0.704 0.448 1.152 0.448 1.152zM768.448 569.6c0 1.856 0.576 3.648 1.472 5.312l8.32-3.2c0.768-4.096 1.216-9.088 1.152-15.424-5.76 1.536-10.944 7.424-10.944 13.312z" />
<glyph unicode="&#xe628;" glyph-name="expanded" data-tags="expanded" horiz-adv-x="749" d="M744.768 610.88c0-12.608-4.608-23.488-13.824-32.768l-325.824-325.76c-9.216-9.216-20.16-13.824-32.768-13.824s-23.488 4.608-32.768 13.824l-325.76 325.824c-9.216 9.216-13.824 20.096-13.824 32.704s4.608 23.488 13.824 32.768c9.216 9.216 20.16 13.824 32.768 13.824h651.584c12.608 0 23.488-4.608 32.768-13.824 9.216-9.216 13.824-20.16 13.824-32.768z" />
<glyph unicode="&#xe629;" glyph-name="favs" data-tags="favs" horiz-adv-x="1062" d="M1053.12 578.24c-9.152 26.368-32.64 45.696-60.864 49.856l-275.008 40.96-119.616 248.192c-12.544 26.048-39.488 42.752-69.12 42.752-29.568 0-56.512-16.704-69.12-42.752l-119.552-248.128-275.072-40.96c-28.224-4.224-51.712-23.488-60.8-49.92s-2.24-55.616 17.728-75.52l201.536-201.28-46.72-279.168c-4.736-28.096 7.488-56.384 31.36-72.832 13.12-8.832 28.48-13.44 43.904-13.44 12.672 0 25.408 3.072 36.928 9.28l239.808 129.088 239.808-129.088c11.52-6.208 24.256-9.28 36.928-9.28 15.424 0 30.848 4.608 44.032 13.568 23.872 16.448 36.032 44.736 31.296 72.832l-46.784 279.168 201.6 201.28c19.904 19.84 26.752 48.96 17.728 75.392z" />
<glyph unicode="&#xe62a;" glyph-name="fencing" data-tags="fencing" horiz-adv-x="813" d="M579.008 253.44c-64.064-42.624-81.408-129.088-38.848-193.152l231.936 154.24c-42.624 64.128-128.96 81.536-193.088 38.912zM631.961 100.335l67.727 45.056 109.327-164.335-67.727-45.056-109.327 164.335zM369.28 538.432l-166.656-239.424 81.92-53.888 119.936 226.752 119.936-226.752 81.984 53.888-166.72 239.424 223.040 421.568-258.24-371.008-258.176 371.008zM230.016 253.44c-64.128 42.624-150.464 25.216-193.152-38.912l231.936-154.24c42.56 64.064 25.216 150.528-38.784 193.152zM67.662-63.973l-67.727 45.056 109.327 164.335 67.727-45.056-109.327-164.335z" />
<glyph unicode="&#xe62b;" glyph-name="financials" data-tags="financials" horiz-adv-x="1056" d="M1049.024 211.008c-0.128-0.512 0-1.024-0.192-1.536-24.192-61.76-56.576-121.216-96-176.704-3.712-5.184-9.536-7.936-15.488-7.936-3.776 0-7.68 1.088-11.008 3.52-8.576 6.080-10.56 17.984-4.416 26.496 23.872 33.6 43.968 68.928 62.144 105.088-129.28-83.2-277.76-126.336-428.288-126.336-88.448 0-177.664 14.848-264.064 45.056-9.92 3.52-15.104 14.336-11.648 24.192 3.392 9.92 14.272 15.168 24.192 11.648 222.464-77.888 464.192-48.064 659.648 77.952-38.848-0.896-77.248 1.664-114.816 7.616-10.368 1.728-17.408 11.392-15.808 21.824 1.664 10.304 11.2 17.536 21.76 15.744 56.32-9.024 114.816-9.728 173.76-2.304 0.512 0 0.96-0.256 1.472-0.256 2.24 0.064 4.416-0.256 6.528-0.896 0.832-0.256 1.6-0.384 2.368-0.768 2.624-1.28 5.12-2.88 6.976-5.312 1.92-2.432 2.944-5.248 3.456-8.128 0.192-0.832 0.128-1.6 0.192-2.496 0.128-2.176-0.128-4.352-0.768-6.464zM844.352 25.152c-253.504-91.328-529.28-58.304-752.32 86.080 41.984-3.136 83.648-2.752 124.608 1.28 10.432 1.024 18.112 10.304 17.088 20.736s-10.496 17.664-20.736 17.088c-62.4-6.144-126.656-3.456-191.040 7.936-0.448 0.064-0.896-0.128-1.344-0.128-2.56 0.32-4.928 0.064-7.424-0.64-0.768-0.256-1.472-0.448-2.176-0.768-2.752-1.216-5.376-2.944-7.36-5.504-1.984-2.496-3.008-5.44-3.52-8.384-0.064-0.96-0.064-1.664-0.128-2.56-0.128-2.368 0.256-4.8 1.088-7.104 0.192-0.384 0-0.896 0.256-1.472 29.632-65.728 67.648-128.704 113.152-187.136 3.776-4.8 9.344-7.36 15.040-7.36 4.096 0 8.192 1.28 11.648 4.032 8.256 6.464 9.792 18.368 3.328 26.624-27.392 35.136-50.944 72.448-72.384 110.592 145.344-93.824 312.064-142.464 481.28-142.464 101.824 0 204.544 17.536 303.872 53.312 9.856 3.584 14.976 14.4 11.392 24.256-3.52 10.048-14.464 15.104-24.32 11.584zM595.584 567.296h25.472v-235.712c0-21.056 17.024-38.080 38.016-38.080h258.304c20.992 0 38.016 17.024 38.016 38.080 0 20.992-17.024 38.016-38.016 38.016h-220.288v197.696h91.136c10.496 0 19.008 8.512 19.008 19.008s-8.512 19.008-19.008 19.008h-91.136v80.384c0 64.704 50.368 117.312 112.32 117.312 30.336 0 58.88-12.544 80.192-35.328 14.4-15.36 38.464-16.128 53.76-1.728 15.36 14.336 16.128 38.336 1.792 53.696-35.904 38.336-84.096 59.392-135.744 59.392-103.872 0-188.352-86.72-188.352-193.344v-80.384h-25.472c-10.496 0-19.008-8.576-19.008-19.008-0.064-10.496 8.448-19.008 19.008-19.008zM291.264 294.208l0.448-57.984c0.064-10.496 8.576-18.88 19.008-18.88 0.064 0 0.128 0 0.128 0 10.496 0.128 18.944 8.64 18.88 19.2l-0.384 58.368c120.512 6.848 197.76 75.52 197.76 179.968 0 47.36-18.176 83.84-58.496 117.888-31.616 27.392-65.664 41.216-120.832 49.408l-72.96 11.904c-24.64 4.032-46.72 16.96-58.048 26.688-3.2 2.752-12.928 11.136-12.928 38.144 0 47.68 32.32 77.312 84.224 77.312 52.48 0 98.624-14.528 126.592-39.936 15.552-14.144 39.616-13.056 53.76 2.496 14.144 15.616 12.928 39.616-2.56 53.824-33.984 30.848-81.536 50.048-136.128 56.64v71.744c0 10.56-8.512 19.008-19.008 19.008s-19.008-8.448-19.008-19.008v-68.928c-1.28 0.064-2.368 0.32-3.648 0.32-94.4 0-160.32-63.104-160.32-153.408 0-41.024 13.184-73.216 39.296-95.744 25.6-22.080 61.312-38.592 95.424-44.16l73.536-11.968c46.72-6.976 65.152-16.576 83.136-32.192 23.808-20.096 31.872-35.264 31.872-60.096 0-94.976-98.56-105.216-140.992-105.216-68.096 0-108.928 15.488-150.592 57.152-14.848 14.848-38.912 14.848-53.824 0.064-14.848-14.848-14.848-38.912 0-53.76 51.52-51.584 108.096-75.584 185.664-78.848z" />
<glyph unicode="&#xe62c;" glyph-name="fishing" data-tags="fishing" d="M86.528 547.776c5.12-56-34.24-100.736 3.136-221.632-7.872 1.216-26.752 4.288-33.536 7.488-20.736 9.728-39.936 29.76-39.936 29.76 16.64-64.704 81.856-98.752 104.96-109.056 31.104-53.824 80.704-107.712 158.72-154.496 152.32-91.392 393.408-51.328 530.88 125.184 7.168-4.672 13.888-9.92 20.224-16 4.288-4.096 8.256-8.576 12.16-13.248 2.24-2.688 4.672-5.248 6.784-8.128 2.752-3.712 5.248-7.808 7.872-11.776 1.92-3.008 3.968-5.888 5.824-9.024 2.432-4.16 4.672-8.576 6.976-12.992 1.664-3.2 3.392-6.336 4.992-9.664 2.176-4.544 4.096-9.152 6.080-13.824 1.408-3.328 2.88-6.656 4.224-10.048 1.856-4.736 3.584-9.536 5.248-14.336 1.216-3.456 2.432-6.848 3.584-10.304 1.6-4.8 3.072-9.6 4.48-14.464 1.024-3.456 2.048-6.912 2.944-10.304 1.28-4.736 2.56-9.472 3.712-14.208 0.832-3.392 1.664-6.784 2.432-10.112 1.088-4.608 2.112-9.216 3.072-13.696 0.704-3.264 1.344-6.4 1.92-9.6 0.832-4.352 1.664-8.64 2.432-12.736 0.576-3.072 1.088-6.080 1.536-9.088 0.64-3.904 1.28-7.808 1.856-11.456 0.448-2.816 0.768-5.44 1.152-8.064 0.512-3.456 0.96-6.912 1.344-10.048 0.32-2.432 0.576-4.544 0.832-6.72 0.32-2.816 0.704-5.76 0.96-8.192 0.192-2.112 0.384-3.84 0.576-5.632 0.192-1.92 0.384-4.096 0.576-5.696 0.192-1.856 0.256-3.2 0.384-4.48 0.064-0.896 0.192-2.112 0.192-2.752-0.064-1.408 0-2.432 0-2.432 3.712 12.544 6.592 24.896 9.088 37.12 0.704 3.328 1.28 6.592 1.856 9.856 1.728 9.728 3.2 19.328 4.224 28.8 0.256 2.496 0.64 5.056 0.896 7.552 1.152 11.84 1.792 23.488 1.984 34.88 0 1.472-0.064 2.88-0.064 4.288 0.064 10.048-0.256 19.904-0.832 29.504-0.128 2.496-0.32 5.056-0.512 7.552-0.768 10.048-1.792 19.84-3.2 29.44-0.128 0.704-0.128 1.408-0.256 2.048-1.536 10.432-3.456 20.48-5.568 30.272-0.448 2.112-0.96 4.096-1.408 6.144-1.728 7.616-3.648 14.976-5.632 22.208-0.64 2.304-1.28 4.672-1.92 6.912-2.496 8.448-5.12 16.768-7.936 24.576-0.576 1.664-1.216 3.2-1.856 4.864-2.176 6.016-4.416 11.776-6.656 17.344-1.344 3.264-2.624 6.336-3.968 9.408-1.536 3.52-3.008 6.912-4.544 10.24-12.032 26.368-23.744 46.464-31.808 58.944 8.96 19.584 16.96 40.192 23.68 61.952 0 0 48.32 117.632 59.392 176.576 11.136 58.944 70.464 197.632 70.464 197.632l-11.968-10.688c1.28 2.752 2.24 4.608 2.24 4.608l-93.056-85.376c0 0 56.064 207.872 98.496 297.344 0 0-190.4-309.824-227.776-339.392-34.24-27.136-179.008-104.96-226.176-174.528-67.072-34.24-138.56-73.792-163.52-98.176l108.544-4.032c-47.424-70.464-125.568-139.328-228.864-82.368-10.112 5.568-20.352 12.288-30.72 20.16-109.632 83.584-143.744 208.448-137.664 241.024 6.144 33.088 43.776 40.832 43.776 40.832 88.576-13.056 224.512 95.232 224.512 95.232s-128.512-24.576-224.32 2.816c-95.808 27.392-129.152 227.072-129.152 227.072-65.088-122.496 15.232-280.256 40.192-293.696 0 0 20.224-34.368 21.44-47.168zM824.832 587.392c11.904 14.592 29.888 19.584 40.384 11.008 10.496-8.64 9.408-27.392-2.432-42.112-11.84-14.656-29.888-19.52-40.32-10.944-10.432 8.704-9.344 27.456 2.368 42.048z" />
<glyph unicode="&#xe62d;" glyph-name="floorball" data-tags="floorball" horiz-adv-x="1280" d="M1279.168 954.368l-146.56 5.632-106.176-397.504c-25.344-27.712-63.296-61.76-127.168-95.104-54.336-28.352-349.568-193.92-667.456-89.664 0 0-75.392 20.48-91.52 21.12-27.648 1.088-112.832-49.792-131.84-154.752-19.008-105.024-14.464-219.968 100.48-255.68 115.008-35.648 507.712-128.704 923.648 74.432 0 0 149.248 67.392 148.416 202.176-0.576 95.616-16.256 161.92-13.824 211.008l112 478.336zM757.504 365.632c0 0 151.744 59.904 181.568 78.144l-20.416-60.032c-31.488-16.192-67.2-31.36-173.056-59.136l11.904 41.024zM909.44 356.8l-25.984-76.544c-35.328-17.152-69.312-29.12-169.28-53.184l21.056 65.408c71.232 18.944 106.304 27.84 174.208 64.32zM874.752 254.592l-19.648-57.6c-37.056-18.624-70.592-31.040-168.192-54.592l17.984 55.744c69.312 17.024 102.784 23.424 169.856 56.448zM572.8 317.376c0 0 129.152 24.832 148.48 38.208l-11.52-39.936c-52.672-12.288-78.72-18.88-145.536-25.728l8.576 27.456zM699.072 283.52l-21.504-64.704c-53.568-11.264-80.448-16.512-148.288-21.44l23.616 62.528c59.072 4.8 85.632 9.6 146.176 23.616zM667.904 189.888l-18.624-55.936c-54.464-11.2-82.368-16-151.424-19.84l20.992 55.552c59.84 3.648 87.296 7.296 149.056 20.224zM430.016 311.36l116.672 5.056c0 0-3.904-9.536-11.072-30.144-49.536-4.224-62.208-4.736-118.528-3.84l12.928 28.928zM526.528 259.008c-6.464-18.496-14.016-40.704-22.144-63.168-52.032-3.008-69.12-3.328-128.64-0.32l29.12 61.184c51.328-2.048 66.24-1.216 121.664 2.304zM182.272 140.672l19.456 49.536c48-8.512 71.68-12.096 130.432-17.088l-24.832-52.864c-49.6 5.184-70.848 9.216-125.056 20.416zM300.16 104.96l-20.096-42.752c-48 6.144-67.392 10.88-119.68 22.528l14.656 37.44c46.144-8.384 68.032-11.968 125.12-17.216zM210.816 213.184l23.424 59.712c50.24-7.936 76.544-10.688 138.048-14.464l-28.608-60.928c-51.904 3.712-75.776 6.080-132.864 15.68zM331.328 102.336c55.36-4.096 75.392-5.76 136.896-3.52-6.784-17.664-13.952-34.368-20.096-49.28-54.976-0.64-74.432 1.984-137.664 8.96l20.864 43.84zM338.368 117.248l25.536 53.44c53.824-3.52 71.616-4.736 130.496-2.112-6.848-18.56-14.208-37.376-21.12-55.552-54.144-2.048-72.768-1.024-134.912 4.224zM258.176 333.888c4.224-4.416 139.008-20.928 139.008-20.928l-13.184-29.824c-54.4 1.984-81.152 2.752-141.312 11.072l15.488 39.68zM234.88 341.44l-18.24-43.392c-56.064 8.576-72.576 14.144-133.12 29.376 63.808 49.92 140.672 17.856 151.36 14.016zM73.024 311.424c23.68-7.104 45.888-18.88 135.424-34.304l-23.104-59.456c-57.472 10.56-75.328 18.368-137.536 36.16 7.68 22.912 16.128 42.048 25.216 57.6zM33.792 185.408c0.512 14.72 2.944 30.528 7.616 47.552 21.824-7.104 44.032-20.48 135.104-38.016l-19.008-48.96c-53.184 11.84-66.368 20.8-123.648 39.552l-0.064-0.128zM34.752 159.616c24.768-7.68 40.064-12.544 115.328-32.768l-11.84-34.112c-43.136 10.304-58.816 15.36-102.4 32.384-1.024 9.024-3.008 22.016-1.088 34.496zM109.248 25.088c0 0-66.368 9.024-69.376 72 26.368-8.192 50.816-13.184 89.664-27.648l-20.288-44.352zM245.696-6.784l-110.464 25.856 15.808 42.048c43.712-9.664 63.168-14.912 118.016-22.208l-23.36-45.696zM415.936-20.224l-138.176 10.24 21.568 45.248c55.68-6.272 77.184-10.432 139.712-10.24-8.96-20.416-18.688-41.216-23.104-45.248zM601.024-10.752l-159.232-11.136 22.464 47.232c60.672 1.088 89.408 2.112 153.024 12.608l-16.256-48.704zM473.664 49.984l18.688 49.664c60.416 3.072 88.704 6.208 151.616 18.368l-17.92-53.696c-54.72-9.472-83.008-12.416-152.384-14.336zM799.744 19.648l-161.92-29.184 17.728 54.592c66.048 13.184 96.832 14.592 162.048 41.856l-17.856-67.264zM664.064 71.616l17.472 54.272c67.584 15.36 99.712 19.392 166.016 49.088l-19.776-58.176c-39.552-17.92-71.232-25.92-163.712-45.184zM972.736 83.008l-128.704-50.304 16.512 60.288 131.968 59.84c-1.152-11.136-19.776-69.824-19.776-69.824zM1019.904 108.16l27.904 81.472 90.688 66.048c1.792-103.744-118.592-147.52-118.592-147.52zM1063.552 228.992l28.288 98.688 41.152 21.504 6.72-62.016-76.16-58.176zM458.304 653.568c0-106.039-85.961-192-192-192s-192 85.961-192 192c0 106.039 85.961 192 192 192s192-85.961 192-192z" />
<glyph unicode="&#xe62e;" glyph-name="football" data-tags="football" horiz-adv-x="1062" d="M814.272 618.688l165.12 60.352c2.496 18.112-5.632 54.528-46.656 126.208-58.368 69.12-133.952 122.624-220.096 154.752-8.128 0-80.768-0.704-125.504-28.416 9.216-32.704 38.080-136.512 50.368-200.704l176.768-112.192zM168.256 760.32v0 0.064zM168.256 760.32c-0.256-54.784 15.616-122.752 15.616-122.752l255.808-38.080 159.552 131.072c-14.848 74.56-50.752 199.488-51.136 200.768l0.32 0.064c-52.48 15.36-141.056 19.52-141.056 19.52-148.928-46.336-238.080-189.248-239.104-190.592zM293.568 937.664c-87.936-43.968-161.792-111.488-213.568-194.56 18.624 18.048 40.96 36.544 62.336 45.568 16.576 23.168 72.192 95.488 151.232 148.992zM161.792 163.456c-60.16 99.008-96.768 223.744-109.632 272.64-15.296 11.584-36.288 30.528-50.752 55.744-0.448-9.088-1.408-17.92-1.408-27.008 0-152.192 65.024-289.088 168.192-385.664-4.48 18.048-8.128 44.928-6.4 84.288zM425.472 563.008l-250.432 36.48c0 0-50.112-62.272-88.768-144.704 9.6-37.952 46.848-172.736 108.8-273.792 43.456-15.296 121.152-40.128 165.504-39.424 46.208 56.896 124.416 172.672 152.32 214.208-19.2 39.872-59.008 125.184-87.424 207.232zM584.768-34.816c-51.584 0-90.24 7.36-103.616 10.24-14.848-10.048-40.96-20.608-85.12-21.952 42.56-11.008 86.848-17.472 132.8-17.472 90.304 0 175.552 22.784 249.92 62.976-3.52 0.448-6.848 1.024-10.368 2.24-65.088-28.032-131.008-36.032-183.616-36.032zM543.168 333.44c-27.968-41.856-101.568-150.528-149.056-210.24 0.32-0.512 0.448-1.152 0.768-1.792 6.4-11.136 39.872-66.624 79.296-102.784l10.88-5.568c1.536-0.384 146.816-35.2 279.808 27.456 29.376 28.352 82.24 78.656 100.48 122.048-36.288 89.024-112.512 188.416-113.024 189.248 0 0-59.136-11.84-209.152-18.368zM1055.104 513.152c-6.848 25.792-27.52 91.2-66.624 129.152l-158.016-57.728c-5.76-46.336-16.96-141.504-44.736-210.496 0 0 84.032-135.488 107.904-182.72 0 0 53.632 18.816 114.24 66.624 0 0 1.728-3.968 1.728-11.968 30.656 66.816 48 140.608 48 218.752 0 16.256-1.024 32.384-2.496 48.384z" />
<glyph unicode="&#xe62f;" glyph-name="futsal" data-tags="futsal" horiz-adv-x="1280" d="M55.808 921.408c8.768 5.696 17.216 11.84 26.24 17.088 24.832 14.464 51.84 21.312 80.512 21.312 158.592 0.064 284.8 0 443.392 0 1.984 0 3.904-0.384 4.032-0.384 0-90.176 0-179.776 0-271.040-70.208-9.856-129.024-44.736-170.88-105.92-30.72-44.928-43.264-95.296-40.192-149.76 5.824-103.168 84.288-206.464 211.328-224.256 0-89.856 0-179.52 0-270.912-2.816-0.064-8.064-0.256-13.44-0.256-151.040-0.064-269.76 0.192-420.8-0.192-42.432-0.128-81.728 7.808-114.752 36.48-1.408 1.152-3.648 1.408-5.44 2.112-5.696 5.696-11.392 11.392-17.024 17.024-52.992 63.424-35.072 139.2-38.464 214.080 72.704-0.512 143.68-0.96 211.008-1.472 0 163.072 0 324.224 0 487.296-68.224-0.064-138.752-0.064-208.064-0.128-0.704 39.168-2.176 78.208-1.728 117.184 0.32 27.072 9.6 52.032 24.064 74.944 4.224 6.656 8.768 13.184 13.184 19.776 5.696 5.632 11.328 11.328 17.024 17.024zM1237.632 904.384c4.16-6.144 8.512-12.16 12.416-18.432 14.144-22.4 24.192-46.784 24.512-73.344 0.576-39.616-1.216-79.232-1.984-118.592-68.544 0.064-139.52 0.128-208.64 0.192 0-164.608 0-325.504 0-486.912 68.16 0.192 139.072 0.384 213.44 0.576-1.856-49.856 0.704-96.96-6.272-142.592-10.816-70.4-73.472-122.368-144.768-127.424-8.512-0.576-17.024-0.704-25.6-0.704-150.592-0.064-268.8 0-419.456-0.064-5.504 0-11.008-0.896-14.144-1.152 0 91.584 0 181.12 0 272.768 70.592 9.984 130.368 45.888 172.224 109.248 30.080 45.504 41.856 96.192 37.76 150.464-7.872 102.976-86.72 202.688-210.496 220.032-0.064 89.92-0.064 179.52-0.064 270.912 2.112 0.064 7.424 0.32 12.736 0.32 152.128 0 271.872-0.128 423.936 0.256 41.408 0.064 79.552-8.704 111.808-36.352 1.408-1.216 3.648-1.536 5.504-2.24 5.696-5.632 11.392-11.328 17.088-16.96zM1271.936 261.76c-50.56 0-103.168 0-155.008-0.064 0 124.288 0 249.088 0 373.568 51.712-0.128 104.32-0.192 155.2-0.32-0.064-123.52-0.128-248.192-0.192-373.184zM664.448 632.512c88.768-9.408 161.792-97.664 158.848-189.888-3.2-97.344-84.544-171.456-158.848-177.408 0 122.176 0 244.352 0 367.296zM611.392 631.936c0-122.112 0.064-244.352 0.064-366.464-70.848 4.224-155.712 78.336-158.4 178.112-2.624 100.288 78.336 180.672 158.336 188.352zM159.936 634.88c-0.064-124.288-0.128-248.64-0.192-371.904-52.16 0-105.024 0.064-156.544 0.064 0 123.136 0 247.872 0 372.032 51.328-0.064 103.872-0.128 156.736-0.192z" />
</font>
</defs>
</svg>
